<?xml version="1.0" encoding="us-ascii" standalone="no"?><svg xmlns="http://www.w3.org/2000/svg" xmlns:xlink="http://www.w3.org/1999/xlink" contentStyleType="text/css" height="225px" preserveAspectRatio="none" style="width:2132px;height:225px;background:#FFFFFF;" version="1.1" viewBox="0 0 2132 225" width="2132px" zoomAndPan="magnify"><defs/><g><text fill="#000000" font-family="sans-serif" font-size="14" font-weight="bold" lengthAdjust="spacing" textLength="195" x="961.7913" y="22.9951">Doctrine Diagram Bundle</text><g id="elem_setup"><ellipse cx="84.1637" cy="63.3688" fill="#FFFECC" rx="39.9237" ry="14.5719" style="stroke:#333333;stroke-width:2.0;"/><text fill="#000000" font-family="sans-serif" font-size="14" lengthAdjust="spacing" textLength="40" x="61.7805" y="66.9624">setup</text></g><g id="elem_composer:install"><ellipse cx="84.1551" cy="180.8679" fill="#FFFECC" rx="78.1551" ry="18.031" style="stroke:#333333;stroke-width:2.0;"/><text fill="#000000" font-family="sans-serif" font-size="14" lengthAdjust="spacing" textLength="114" x="24.7659" y="184.4534">composer:install</text></g><g id="elem_qa"><ellipse cx="715.1561" cy="63.3705" fill="#FFFECC" rx="23.5061" ry="14.5236" style="stroke:#333333;stroke-width:2.0;"/><text fill="#000000" font-family="sans-serif" font-size="14" lengthAdjust="spacing" textLength="17" x="706.6561" y="66.2172">qa</text></g><g id="elem_composer:normalize"><ellipse cx="287.1644" cy="180.8698" fill="#FFFECC" rx="90.1144" ry="20.4229" style="stroke:#333333;stroke-width:2.0;"/><text fill="#000000" font-family="sans-serif" font-size="14" lengthAdjust="spacing" textLength="142" x="216.1644" y="183.7164">composer:normalize</text></g><g id="elem_composer:validate"><ellipse cx="496.1556" cy="180.87" fill="#FFFECC" rx="83.5656" ry="19.1131" style="stroke:#333333;stroke-width:2.0;"/><text fill="#000000" font-family="sans-serif" font-size="14" lengthAdjust="spacing" textLength="127" x="432.2523" y="183.8543">composer:validate</text></g><g id="elem_cs:fix"><ellipse cx="651.1622" cy="180.8637" fill="#FFFECC" rx="36.2722" ry="14.5369" style="stroke:#333333;stroke-width:2.0;"/><text fill="#000000" font-family="sans-serif" font-size="14" lengthAdjust="spacing" textLength="35" x="632.5357" y="184.101">cs:fix</text></g><g id="elem_cs:check"><ellipse cx="779.1599" cy="180.868" fill="#FFFECC" rx="57.0799" ry="14.7511" style="stroke:#333333;stroke-width:2.0;"/><text fill="#000000" font-family="sans-serif" font-size="14" lengthAdjust="spacing" textLength="63" x="744.6599" y="184.6155">cs:check</text></g><g id="elem_phpstan:analyse"><ellipse cx="949.1551" cy="180.8679" fill="#FFFECC" rx="78.1551" ry="18.031" style="stroke:#333333;stroke-width:2.0;"/><text fill="#000000" font-family="sans-serif" font-size="14" lengthAdjust="spacing" textLength="114" x="889.7659" y="184.4534">phpstan:analyse</text></g><g id="elem_composer:audit"><ellipse cx="1138.1576" cy="180.8704" fill="#FFFECC" rx="76.1676" ry="17.6335" style="stroke:#333333;stroke-width:2.0;"/><text fill="#000000" font-family="sans-serif" font-size="14" lengthAdjust="spacing" textLength="109" x="1080.6576" y="184.618">composer:audit</text></g><g id="elem_docs"><ellipse cx="1421.1614" cy="63.3692" fill="#FFFECC" rx="35.5514" ry="14.5323" style="stroke:#333333;stroke-width:2.0;"/><text fill="#000000" font-family="sans-serif" font-size="14" lengthAdjust="spacing" textLength="34" x="1403.2681" y="66.5324">docs</text></g><g id="elem_plantuml:convert"><ellipse cx="1328.1552" cy="180.8699" fill="#FFFECC" rx="78.9652" ry="18.193" style="stroke:#333333;stroke-width:2.0;"/><text fill="#000000" font-family="sans-serif" font-size="14" lengthAdjust="spacing" textLength="116" x="1268.09" y="184.3654">plantuml:convert</text></g><g id="elem_mkdocs:serve"><ellipse cx="1514.1593" cy="180.8627" fill="#FFFECC" rx="71.9293" ry="16.7859" style="stroke:#333333;stroke-width:2.0;"/><text fill="#000000" font-family="sans-serif" font-size="14" lengthAdjust="spacing" textLength="98" x="1462.1593" y="184.6103">mkdocs:serve</text></g><g id="elem_help"><ellipse cx="1678.1585" cy="63.3705" fill="#FFFECC" rx="32.6985" ry="14.5236" style="stroke:#333333;stroke-width:2.0;"/><text fill="#000000" font-family="sans-serif" font-size="14" lengthAdjust="spacing" textLength="30" x="1663.1309" y="66.2279">help</text></g><g id="elem_visualizer"><ellipse cx="1678.1599" cy="180.868" fill="#FFFECC" rx="57.0799" ry="14.7511" style="stroke:#333333;stroke-width:2.0;"/><text fill="#000000" font-family="sans-serif" font-size="14" lengthAdjust="spacing" textLength="63" x="1643.6599" y="184.6155">visualizer</text></g><g id="elem_composer:outdated"><ellipse cx="1834.1618" cy="63.3672" fill="#FFFECC" rx="88.3518" ry="20.0704" style="stroke:#333333;stroke-width:2.0;"/><text fill="#000000" font-family="sans-serif" font-size="14" lengthAdjust="spacing" textLength="138" x="1765.1618" y="66.2139">composer:outdated</text></g><g id="elem_mkdocs:gh-deploy"><ellipse cx="2042.1563" cy="63.3621" fill="#FFFECC" rx="84.4263" ry="19.2853" style="stroke:#333333;stroke-width:2.0;"/><text fill="#000000" font-family="sans-serif" font-size="14" lengthAdjust="spacing" textLength="129" x="1977.535" y="66.2508">mkdocs:gh-deploy</text></g><!--link setup to composer:install--><g id="link_setup_composer:install"><path d="M84.16,78.0769 C84.16,99.1069 84.16,133.3269 84.16,156.4169 " fill="none" id="setup-to-composer:install" style="stroke:#1A85FF;stroke-width:2.0;"/><polygon fill="#1A85FF" points="84.16,162.4169,88.16,153.4169,84.16,157.4169,80.16,153.4169,84.16,162.4169" style="stroke:#1A85FF;stroke-width:2.0;"/><text fill="#000000" font-family="sans-serif" font-size="13" lengthAdjust="spacing" textLength="60" x="85.16" y="126.5038">depend:1</text></g><!--link qa to composer:normalize--><g id="link_qa_composer:normalize"><path d="M692.93,68.8069 C653.62,76.7869 569.33,94.5069 499.16,113.4369 C442.74,128.6569 384.545,147.2383 341.785,161.4183 " fill="none" id="qa-to-composer:normalize" style="stroke:#1A85FF;stroke-width:2.0;"/><polygon fill="#1A85FF" points="336.09,163.3069,345.8916,164.2707,340.8359,161.7331,343.3735,156.6773,336.09,163.3069" style="stroke:#1A85FF;stroke-width:2.0;"/><text fill="#000000" font-family="sans-serif" font-size="13" lengthAdjust="spacing" textLength="60" x="500.16" y="126.5038">depend:1</text></g><!--link qa to composer:validate--><g id="link_qa_composer:validate"><path d="M695.01,71.4269 C671.09,80.1069 630.28,95.8669 597.16,113.4369 C569.72,127.9969 545.1383,144.4478 525.1583,158.6678 " fill="none" id="qa-to-composer:validate" style="stroke:#1A85FF;stroke-width:2.0;"/><polygon fill="#1A85FF" points="520.27,162.1469,529.9219,160.1871,524.3436,159.2476,525.2831,153.6693,520.27,162.1469" style="stroke:#1A85FF;stroke-width:2.0;"/><text fill="#000000" font-family="sans-serif" font-size="13" lengthAdjust="spacing" textLength="60" x="598.16" y="126.5038">depend:2</text></g><!--link qa to cs:fix--><g id="link_qa_cs:fix"><path d="M703.37,75.9469 C694.35,85.3569 682.13,99.3369 674.16,113.4369 C664.54,130.4369 659.4585,146.327 655.8785,160.207 " fill="none" id="qa-to-cs:fix" style="stroke:#1A85FF;stroke-width:2.0;"/><polygon fill="#1A85FF" points="654.38,166.0169,660.501,158.3011,655.6288,161.1753,652.7545,156.3031,654.38,166.0169" style="stroke:#1A85FF;stroke-width:2.0;"/><text fill="#000000" font-family="sans-serif" font-size="13" lengthAdjust="spacing" textLength="60" x="675.16" y="126.5038">depend:3</text></g><!--link qa to cs:check--><g id="link_qa_cs:check"><path d="M722.5,77.6169 C734.71,99.6569 756.1833,138.398 768.5933,160.808 " fill="none" id="qa-to-cs:check" style="stroke:#1A85FF;stroke-width:2.0;"/><polygon fill="#1A85FF" points="771.5,166.0569,770.6392,156.2457,769.0778,161.6828,763.6407,160.1213,771.5,166.0569" style="stroke:#1A85FF;stroke-width:2.0;"/><text fill="#000000" font-family="sans-serif" font-size="13" lengthAdjust="spacing" textLength="60" x="752.16" y="126.5038">depend:4</text></g><!--link qa to phpstan:analyse--><g id="link_qa_phpstan:analyse"><path d="M733.66,72.6269 C754.91,82.1869 790.75,98.5269 821.16,113.4369 C854.98,130.0369 887.9803,147.2638 913.7903,160.9638 " fill="none" id="qa-to-phpstan:analyse" style="stroke:#1A85FF;stroke-width:2.0;"/><polygon fill="#1A85FF" points="919.09,163.7769,913.0159,156.0241,914.6736,161.4326,909.2651,163.0904,919.09,163.7769" style="stroke:#1A85FF;stroke-width:2.0;"/><text fill="#000000" font-family="sans-serif" font-size="13" lengthAdjust="spacing" textLength="60" x="854.16" y="126.5038">depend:5</text></g><!--link qa to composer:audit--><g id="link_qa_composer:audit"><path d="M737.14,69.0369 C775.22,77.2469 855.85,95.1269 923.16,113.4369 C983.66,129.9069 1047.1053,149.9776 1090.2753,164.0476 " fill="none" id="qa-to-composer:audit" style="stroke:#1A85FF;stroke-width:2.0;"/><polygon fill="#1A85FF" points="1095.98,165.9069,1088.6625,159.3149,1091.2261,164.3575,1086.1835,166.9211,1095.98,165.9069" style="stroke:#1A85FF;stroke-width:2.0;"/><text fill="#000000" font-family="sans-serif" font-size="13" lengthAdjust="spacing" textLength="60" x="984.16" y="126.5038">depend:6</text></g><!--link docs to plantuml:convert--><g id="link_docs_plantuml:convert"><path d="M1410.49,77.6169 C1393.6,98.5969 1364.4631,134.7737 1345.7731,157.9837 " fill="none" id="docs-to-plantuml:convert" style="stroke:#1A85FF;stroke-width:2.0;"/><polygon fill="#1A85FF" points="1342.01,162.6569,1350.7702,158.1558,1345.1459,158.7625,1344.5392,153.1383,1342.01,162.6569" style="stroke:#1A85FF;stroke-width:2.0;"/><text fill="#000000" font-family="sans-serif" font-size="13" lengthAdjust="spacing" textLength="60" x="1381.16" y="126.5038">depend:1</text></g><!--link docs to mkdocs:serve--><g id="link_docs_mkdocs:serve"><path d="M1431.82,77.6169 C1449.09,99.0669 1479.3369,136.6236 1497.7769,159.5236 " fill="none" id="docs-to-mkdocs:serve" style="stroke:#1A85FF;stroke-width:2.0;"/><polygon fill="#1A85FF" points="1501.54,164.1969,1499.0109,154.6783,1498.4041,160.3025,1492.7799,159.6957,1501.54,164.1969" style="stroke:#1A85FF;stroke-width:2.0;"/><text fill="#000000" font-family="sans-serif" font-size="13" lengthAdjust="spacing" textLength="60" x="1474.16" y="126.5038">depend:2</text></g><!--link help to visualizer--><g id="link_help_visualizer"><path d="M1678.16,78.0769 C1678.16,100.1769 1678.16,137.4969 1678.16,159.8169 " fill="none" id="help-to-visualizer" style="stroke:#D41159;stroke-width:2.0;"/><polygon fill="#D41159" points="1678.16,165.8169,1682.16,156.8169,1678.16,160.8169,1674.16,156.8169,1678.16,165.8169" style="stroke:#D41159;stroke-width:2.0;"/><text fill="#000000" font-family="sans-serif" font-size="13" lengthAdjust="spacing" textLength="33" x="1679.16" y="126.5038">call:1</text></g><text fill="#888888" font-family="sans-serif" font-size="10" lengthAdjust="spacing" textLength="66" x="2052.5825" y="215.5749">Phing buildfile</text><!--SRC=[ZP71KkCm38RlUWhFS6aFFHGei-J036t9UMSMJZjxCBQQUE9OMLif2q-_JXh0JLC6tonzadxfPyCMOKkAlN4ejaOMNjPYtJeTu-Yqu9u0RugInOw8qSFFqhX2FBV6wfqPk245J8rW4i_4JBNGngDYGmuWLCOrikl-gvIQNheMEsa39fbxx-ab9ySRikJ5safLZTEFfL6Lmn34PP9w2hYH0TUneF0KvHywNEHv_h3PJ83aDVe1kkhVEUZBWMEn0BE0t3PpiVXziRp_iShpFuixCLDKDnJGPyO5bjREHIOqDl5osH9cV-LPtf6lfJLl-EsAVSIrvBJWSh8WP3lpBw6kpb2gH5KbtFKKrvHDNCnbqadx6jBXgo_LobORJkWRc6bIuQIzbOxRscQAt1uz7rzZggAkkcWMP-n7foZH7lpPNY-NgzkUtflGzcVs7QkYGrtVWvMz_c48d2mAfzx2U3sOS0UcF4w2r7B7wVaW65ADSBpUnxSe5t5FIw-TqF79uDro-7JrFm00]--></g></svg>