<?xml version="1.0" encoding="us-ascii" standalone="no"?><svg xmlns="http://www.w3.org/2000/svg" xmlns:xlink="http://www.w3.org/1999/xlink" contentStyleType="text/css" height="322px" preserveAspectRatio="none" style="width:1873px;height:322px;background:#FFFFFF;" version="1.1" viewBox="0 0 1873 322" width="1873px" zoomAndPan="magnify"><defs/><g><text fill="#000000" font-family="sans-serif" font-size="14" font-weight="bold" lengthAdjust="spacing" textLength="202" x="828.5998" y="22.9951">Doctrine Diagram Bundle</text><g id="elem_setup"><ellipse cx="138.6638" cy="62.878" fill="#FFFECC" rx="40.6638" ry="14.5812" style="stroke:#333333;stroke-width:2.0;"/><text fill="#000000" font-family="sans-serif" font-size="14" lengthAdjust="spacing" textLength="41" x="115.5122" y="66.5401">setup</text></g><g id="elem_composer:install"><ellipse cx="86.6107" cy="180.319" fill="#FFFECC" rx="80.6107" ry="18.5221" style="stroke:#333333;stroke-width:2.0;"/><text fill="#000000" font-family="sans-serif" font-size="14" lengthAdjust="spacing" textLength="120" x="25.1726" y="183.6316">composer:install</text></g><g id="elem_docs"><ellipse cx="237.3338" cy="180.3256" fill="#FFFECC" rx="34.8338" ry="14.5287" style="stroke:#333333;stroke-width:2.0;"/><text fill="#000000" font-family="sans-serif" font-size="14" lengthAdjust="spacing" textLength="33" x="220.1671" y="183.4137">docs</text></g><g id="elem_qa"><ellipse cx="840.5061" cy="62.8205" fill="#FFFECC" rx="23.5061" ry="14.5236" style="stroke:#333333;stroke-width:2.0;"/><text fill="#000000" font-family="sans-serif" font-size="14" lengthAdjust="spacing" textLength="17" x="832.0061" y="65.6672">qa</text></g><g id="elem_composer:normalize"><ellipse cx="400.2771" cy="180.2523" fill="#FFFECC" rx="92.7771" ry="20.9554" style="stroke:#333333;stroke-width:2.0;"/><text fill="#000000" font-family="sans-serif" font-size="14" lengthAdjust="spacing" textLength="148" x="326.2771" y="183.099">composer:normalize</text></g><g id="elem_composer:validate"><ellipse cx="615.5998" cy="180.5168" fill="#FFFECC" rx="86.5998" ry="19.72" style="stroke:#333333;stroke-width:2.0;"/><text fill="#000000" font-family="sans-serif" font-size="14" lengthAdjust="spacing" textLength="134" x="548.5998" y="183.3635">composer:validate</text></g><g id="elem_cs:fix"><ellipse cx="775.4534" cy="180.3525" fill="#FFFECC" rx="38.4534" ry="14.5556" style="stroke:#333333;stroke-width:2.0;"/><text fill="#000000" font-family="sans-serif" font-size="14" lengthAdjust="spacing" textLength="38" x="754.5903" y="183.8064">cs:fix</text></g><g id="elem_cs:check"><ellipse cx="906.5799" cy="180.048" fill="#FFFECC" rx="57.0799" ry="14.7511" style="stroke:#333333;stroke-width:2.0;"/><text fill="#000000" font-family="sans-serif" font-size="14" lengthAdjust="spacing" textLength="63" x="872.0799" y="183.7955">cs:check</text></g><g id="elem_phpstan:analyse"><ellipse cx="1078.2839" cy="180.1536" fill="#FFFECC" rx="79.7839" ry="18.3568" style="stroke:#333333;stroke-width:2.0;"/><text fill="#000000" font-family="sans-serif" font-size="14" lengthAdjust="spacing" textLength="118" x="1017.5356" y="183.5582">phpstan:analyse</text></g><g id="elem_composer:audit"><ellipse cx="1271.2532" cy="180.2475" fill="#FFFECC" rx="77.7532" ry="17.9506" style="stroke:#333333;stroke-width:2.0;"/><text fill="#000000" font-family="sans-serif" font-size="14" lengthAdjust="spacing" textLength="113" x="1212.1994" y="183.8777">composer:audit</text></g><g id="elem_plantuml:convert"><ellipse cx="142.712" cy="297.2393" fill="#FFFECC" rx="82.712" ry="18.9424" style="stroke:#333333;stroke-width:2.0;"/><text fill="#000000" font-family="sans-serif" font-size="14" lengthAdjust="spacing" textLength="125" x="79.5208" y="300.3184">plantuml:convert</text></g><g id="elem_mkdocs:build"><ellipse cx="331.6781" cy="297.4325" fill="#FFFECC" rx="71.1781" ry="16.6356" style="stroke:#333333;stroke-width:2.0;"/><text fill="#000000" font-family="sans-serif" font-size="14" lengthAdjust="spacing" textLength="96" x="280.6781" y="301.1801">mkdocs:build</text></g><g id="elem_help"><ellipse cx="1444.6191" cy="62.8229" fill="#FFFECC" rx="34.1191" ry="14.526" style="stroke:#333333;stroke-width:2.0;"/><text fill="#000000" font-family="sans-serif" font-size="14" lengthAdjust="spacing" textLength="32" x="1428.1725" y="65.835">help</text></g><g id="elem_visualizer"><ellipse cx="1444.3197" cy="180.064" fill="#FFFECC" rx="59.3197" ry="14.7671" style="stroke:#333333;stroke-width:2.0;"/><text fill="#000000" font-family="sans-serif" font-size="14" lengthAdjust="spacing" textLength="66" x="1408.3197" y="183.8116">visualizer</text></g><g id="elem_mkdocs:serve"><ellipse cx="1586.6868" cy="62.7342" fill="#FFFECC" rx="72.6868" ry="16.9374" style="stroke:#333333;stroke-width:2.0;"/><text fill="#000000" font-family="sans-serif" font-size="14" lengthAdjust="spacing" textLength="100" x="1533.6868" y="66.4818">mkdocs:serve</text></g><g id="elem_mkdocs:gh-deploy"><ellipse cx="1780.5998" cy="63.0168" fill="#FFFECC" rx="86.5998" ry="19.72" style="stroke:#333333;stroke-width:2.0;"/><text fill="#000000" font-family="sans-serif" font-size="14" lengthAdjust="spacing" textLength="134" x="1713.5998" y="65.8635">mkdocs:gh-deploy</text></g><!--link setup to composer:install--><g id="link_setup_composer:install"><path d="M128.527,77.2439 C121.88,86.6809 113.327,99.7979 107.5,112.2969 C99.9802,128.4279 95.7111,142.1424 92.1384,155.9424 " fill="none" id="setup-to-composer:install" style="stroke:#1A85FF;stroke-width:2.0;"/><polygon fill="#1A85FF" points="90.6346,161.7509,96.7626,154.0406,91.8877,156.9105,89.0179,152.0356,90.6346,161.7509" style="stroke:#1A85FF;stroke-width:2.0;"/><text fill="#000000" font-family="sans-serif" font-size="13" lengthAdjust="spacing" textLength="61" x="108.5" y="125.3638">depend:1</text></g><!--link setup to docs--><g id="link_setup_docs"><path d="M149.857,77.0459 C168.953,99.3259 203.3632,139.4714 222.3712,161.6464 " fill="none" id="setup-to-docs" style="stroke:#1A85FF;stroke-width:2.0;"/><polygon fill="#1A85FF" points="226.276,166.2019,223.4557,156.7655,223.022,162.4057,217.3818,161.9719,226.276,166.2019" style="stroke:#1A85FF;stroke-width:2.0;"/><text fill="#000000" font-family="sans-serif" font-size="13" lengthAdjust="spacing" textLength="61" x="195.5" y="125.3638">depend:2</text></g><!--link qa to composer:normalize--><g id="link_qa_composer:normalize"><path d="M818.296,68.1299 C778.588,76.0079 692.887,93.5999 621.5,112.2969 C562.742,127.6859 501.8439,146.4953 457.2529,160.7813 " fill="none" id="qa-to-composer:normalize" style="stroke:#1A85FF;stroke-width:2.0;"/><polygon fill="#1A85FF" points="451.539,162.6119,461.3303,163.6752,456.3006,161.0864,458.8895,156.0567,451.539,162.6119" style="stroke:#1A85FF;stroke-width:2.0;"/><text fill="#000000" font-family="sans-serif" font-size="13" lengthAdjust="spacing" textLength="61" x="622.5" y="125.3638">depend:1</text></g><!--link qa to composer:validate--><g id="link_qa_composer:validate"><path d="M820.414,70.8659 C796.554,79.5319 755.793,95.1879 722.5,112.2969 C693.649,127.1239 667.3707,143.8484 646.1347,158.1494 " fill="none" id="qa-to-composer:validate" style="stroke:#1A85FF;stroke-width:2.0;"/><polygon fill="#1A85FF" points="641.158,161.5009,650.8574,159.7915,645.3053,158.708,646.3887,153.1559,641.158,161.5009" style="stroke:#1A85FF;stroke-width:2.0;"/><text fill="#000000" font-family="sans-serif" font-size="13" lengthAdjust="spacing" textLength="61" x="723.5" y="125.3638">depend:2</text></g><!--link qa to cs:fix--><g id="link_qa_cs:fix"><path d="M828.741,75.7069 C820.03,85.0399 808.356,98.6839 800.5,112.2969 C790.509,129.6099 784.8678,145.8832 780.8168,159.8552 " fill="none" id="qa-to-cs:fix" style="stroke:#1A85FF;stroke-width:2.0;"/><polygon fill="#1A85FF" points="779.146,165.6179,785.494,158.0877,780.5383,160.8156,777.8104,155.86,779.146,165.6179" style="stroke:#1A85FF;stroke-width:2.0;"/><text fill="#000000" font-family="sans-serif" font-size="13" lengthAdjust="spacing" textLength="61" x="801.5" y="125.3638">depend:3</text></g><!--link qa to cs:check--><g id="link_qa_cs:check"><path d="M847.815,76.5989 C860.301,98.4479 882.645,137.5515 895.56,160.1515 " fill="none" id="qa-to-cs:check" style="stroke:#1A85FF;stroke-width:2.0;"/><polygon fill="#1A85FF" points="898.537,165.3609,897.5445,155.5622,896.0562,161.0197,890.5986,159.5314,898.537,165.3609" style="stroke:#1A85FF;stroke-width:2.0;"/><text fill="#000000" font-family="sans-serif" font-size="13" lengthAdjust="spacing" textLength="61" x="878.5" y="125.3638">depend:4</text></g><!--link qa to phpstan:analyse--><g id="link_qa_phpstan:analyse"><path d="M859.372,71.9049 C881.039,81.2979 917.577,97.3979 948.5,112.2969 C983.04,128.9379 1016.7572,146.4506 1042.9572,160.3206 " fill="none" id="qa-to-phpstan:analyse" style="stroke:#1A85FF;stroke-width:2.0;"/><polygon fill="#1A85FF" points="1048.26,163.1279,1042.1773,155.3818,1043.841,160.7885,1038.4343,162.4522,1048.26,163.1279" style="stroke:#1A85FF;stroke-width:2.0;"/><text fill="#000000" font-family="sans-serif" font-size="13" lengthAdjust="spacing" textLength="61" x="982.5" y="125.3638">depend:5</text></g><!--link qa to composer:audit--><g id="link_qa_composer:audit"><path d="M862.295,68.2419 C900.859,76.2269 983.555,93.8899 1052.5,112.2969 C1114.16,128.7579 1178.8719,149.0653 1222.8419,163.3053 " fill="none" id="qa-to-composer:audit" style="stroke:#1A85FF;stroke-width:2.0;"/><polygon fill="#1A85FF" points="1228.55,165.1539,1221.2202,158.5755,1223.7932,163.6134,1218.7554,166.1864,1228.55,165.1539" style="stroke:#1A85FF;stroke-width:2.0;"/><text fill="#000000" font-family="sans-serif" font-size="13" lengthAdjust="spacing" textLength="61" x="1108.5" y="125.3638">depend:6</text></g><!--link docs to plantuml:convert--><g id="link_docs_plantuml:convert"><path d="M226.602,194.4889 C209.544,215.1379 180.3283,250.5051 161.1293,273.7458 " fill="none" id="docs-to-plantuml:convert" style="stroke:#1A85FF;stroke-width:2.0;"/><polygon fill="#1A85FF" points="157.308,278.3716,166.1238,273.9805,160.4924,274.5168,159.9561,268.8854,157.308,278.3716" style="stroke:#1A85FF;stroke-width:2.0;"/><text fill="#000000" font-family="sans-serif" font-size="13" lengthAdjust="spacing" textLength="61" x="197.5" y="244.3638">depend:1</text></g><!--link docs to mkdocs:build--><g id="link_docs_mkdocs:build"><path d="M248.283,194.4889 C265.74,215.8459 296.3138,253.2504 314.9548,276.0559 " fill="none" id="docs-to-mkdocs:build" style="stroke:#1A85FF;stroke-width:2.0;"/><polygon fill="#1A85FF" points="318.752,280.7015,316.1532,271.2017,315.5876,276.8302,309.9591,276.2646,318.752,280.7015" style="stroke:#1A85FF;stroke-width:2.0;"/><text fill="#000000" font-family="sans-serif" font-size="13" lengthAdjust="spacing" textLength="61" x="291.5" y="244.3638">depend:2</text></g><!--link help to visualizer--><g id="link_help_visualizer"><path d="M1444.5,77.4999 C1444.5,99.6089 1444.5,136.9249 1444.5,159.2519 " fill="none" id="help-to-visualizer" style="stroke:#D41159;stroke-width:2.0;"/><polygon fill="#D41159" points="1444.5,165.2519,1448.5,156.2519,1444.5,160.2519,1440.5,156.2519,1444.5,165.2519" style="stroke:#D41159;stroke-width:2.0;"/><text fill="#000000" font-family="sans-serif" font-size="13" lengthAdjust="spacing" textLength="34" x="1445.5" y="125.3638">call:1</text></g><!--SRC=[XPBFKi8m4CRl-nIPyG873lnpj0TdeDWNK4-EXv0iDDCqMvEqY4zlA2YbjDXRaj_kVljzzSfhX1K9RvL1jb9yQtdEbgMHuHwDPBucm5F1FB4rUKyvaygYy8eCWCkKAVYXw2NbadRARDc6QuUDbuMrj4l8-9WqMRRKN6JjvzTKYSoWSspIU7fp67E7or2mjHHK7JlS9Kdo7CST85c9zWHDwwyFkZcmBHPWuD2NnP2Dtk_6YuTvadoCdjX0K5wGGnifuppNUiWY9h48naNZdX99mZMm2Gm-UMzRGpRdMdtZPUCR5LN09VVuxmWNRTHNWvhsK295aJMuMHTNf4NOtqJSSBrtpU7pcsfvAPLlqFTmygVLNdFZorn7Wao5rb-wqLMHPuVRQ5qgBI-jI54VCrdDnkFvOqrNofMrpVR0YX3aERvQ_sa8N2qArxy0jDU3ZdIWA-EJE6ZgWSjL_ewXiiBpSPkEmegQzWUDRRVWDsqu1_e3]--></g></svg>