<?xml version="1.0" encoding="us-ascii" standalone="no"?><svg xmlns="http://www.w3.org/2000/svg" xmlns:xlink="http://www.w3.org/1999/xlink" contentStyleType="text/css" height="245px" preserveAspectRatio="none" style="width:1968px;height:245px;background:#FFFFFF;" version="1.1" viewBox="0 0 1968 245" width="1968px" zoomAndPan="magnify"><defs/><g><text fill="#000000" font-family="sans-serif" font-size="14" font-weight="bold" lengthAdjust="spacing" textLength="202" x="876.0998" y="22.9951">Doctrine Diagram Bundle</text><g id="elem_setup"><ellipse cx="86.6638" cy="62.878" fill="#FFFECC" rx="40.6638" ry="14.5812" style="stroke:#333333;stroke-width:2.0;"/><text fill="#000000" font-family="sans-serif" font-size="14" lengthAdjust="spacing" textLength="41" x="63.5122" y="66.5401">setup</text></g><g id="elem_composer:install"><ellipse cx="86.6107" cy="180.319" fill="#FFFECC" rx="80.6107" ry="18.5221" style="stroke:#333333;stroke-width:2.0;"/><text fill="#000000" font-family="sans-serif" font-size="14" lengthAdjust="spacing" textLength="120" x="25.1726" y="183.6316">composer:install</text></g><g id="elem_qa"><ellipse cx="735.5061" cy="62.8205" fill="#FFFECC" rx="23.5061" ry="14.5236" style="stroke:#333333;stroke-width:2.0;"/><text fill="#000000" font-family="sans-serif" font-size="14" lengthAdjust="spacing" textLength="17" x="727.0061" y="65.6672">qa</text></g><g id="elem_composer:normalize"><ellipse cx="295.2771" cy="180.2523" fill="#FFFECC" rx="92.7771" ry="20.9554" style="stroke:#333333;stroke-width:2.0;"/><text fill="#000000" font-family="sans-serif" font-size="14" lengthAdjust="spacing" textLength="148" x="221.2771" y="183.099">composer:normalize</text></g><g id="elem_composer:validate"><ellipse cx="510.5998" cy="180.5168" fill="#FFFECC" rx="86.5998" ry="19.72" style="stroke:#333333;stroke-width:2.0;"/><text fill="#000000" font-family="sans-serif" font-size="14" lengthAdjust="spacing" textLength="134" x="443.5998" y="183.3635">composer:validate</text></g><g id="elem_cs:fix"><ellipse cx="670.4534" cy="180.3525" fill="#FFFECC" rx="38.4534" ry="14.5556" style="stroke:#333333;stroke-width:2.0;"/><text fill="#000000" font-family="sans-serif" font-size="14" lengthAdjust="spacing" textLength="38" x="649.5903" y="183.8064">cs:fix</text></g><g id="elem_cs:check"><ellipse cx="801.5799" cy="180.048" fill="#FFFECC" rx="57.0799" ry="14.7511" style="stroke:#333333;stroke-width:2.0;"/><text fill="#000000" font-family="sans-serif" font-size="14" lengthAdjust="spacing" textLength="63" x="767.0799" y="183.7955">cs:check</text></g><g id="elem_phpstan:analyse"><ellipse cx="973.2839" cy="180.1536" fill="#FFFECC" rx="79.7839" ry="18.3568" style="stroke:#333333;stroke-width:2.0;"/><text fill="#000000" font-family="sans-serif" font-size="14" lengthAdjust="spacing" textLength="118" x="912.5356" y="183.5582">phpstan:analyse</text></g><g id="elem_composer:audit"><ellipse cx="1166.2532" cy="180.2475" fill="#FFFECC" rx="77.7532" ry="17.9506" style="stroke:#333333;stroke-width:2.0;"/><text fill="#000000" font-family="sans-serif" font-size="14" lengthAdjust="spacing" textLength="113" x="1107.1994" y="183.8777">composer:audit</text></g><g id="elem_docs"><ellipse cx="1457.3338" cy="62.8256" fill="#FFFECC" rx="34.8338" ry="14.5287" style="stroke:#333333;stroke-width:2.0;"/><text fill="#000000" font-family="sans-serif" font-size="14" lengthAdjust="spacing" textLength="33" x="1440.1671" y="65.9137">docs</text></g><g id="elem_plantuml:convert"><ellipse cx="1362.712" cy="180.2393" fill="#FFFECC" rx="82.712" ry="18.9424" style="stroke:#333333;stroke-width:2.0;"/><text fill="#000000" font-family="sans-serif" font-size="14" lengthAdjust="spacing" textLength="125" x="1299.5208" y="183.3184">plantuml:convert</text></g><g id="elem_mkdocs:serve"><ellipse cx="1552.6868" cy="180.2342" fill="#FFFECC" rx="72.6868" ry="16.9374" style="stroke:#333333;stroke-width:2.0;"/><text fill="#000000" font-family="sans-serif" font-size="14" lengthAdjust="spacing" textLength="100" x="1499.6868" y="183.9818">mkdocs:serve</text></g><g id="elem_help"><ellipse cx="1719.6191" cy="62.8229" fill="#FFFECC" rx="34.1191" ry="14.526" style="stroke:#333333;stroke-width:2.0;"/><text fill="#000000" font-family="sans-serif" font-size="14" lengthAdjust="spacing" textLength="32" x="1703.1725" y="65.835">help</text></g><g id="elem_visualizer"><ellipse cx="1719.3197" cy="180.064" fill="#FFFECC" rx="59.3197" ry="14.7671" style="stroke:#333333;stroke-width:2.0;"/><text fill="#000000" font-family="sans-serif" font-size="14" lengthAdjust="spacing" textLength="66" x="1683.3197" y="183.8116">visualizer</text></g><g id="elem_mkdocs:gh-deploy"><ellipse cx="1875.5998" cy="63.0168" fill="#FFFECC" rx="86.5998" ry="19.72" style="stroke:#333333;stroke-width:2.0;"/><text fill="#000000" font-family="sans-serif" font-size="14" lengthAdjust="spacing" textLength="134" x="1808.5998" y="65.8635">mkdocs:gh-deploy</text></g><!--link setup to composer:install--><g id="link_setup_composer:install"><path d="M86.5,77.4999 C86.5,98.4139 86.5,132.3045 86.5,155.4538 " fill="none" id="setup-to-composer:install" style="stroke:#1A85FF;stroke-width:2.0;"/><polygon fill="#1A85FF" points="86.5,161.4538,90.5,152.4538,86.5,156.4538,82.5,152.4538,86.5,161.4538" style="stroke:#1A85FF;stroke-width:2.0;"/><text fill="#000000" font-family="sans-serif" font-size="13" lengthAdjust="spacing" textLength="61" x="87.5" y="125.3638">depend:1</text></g><!--link qa to composer:normalize--><g id="link_qa_composer:normalize"><path d="M713.296,68.1299 C673.588,76.0079 587.887,93.5999 516.5,112.2969 C457.742,127.686 396.8439,146.4951 352.2529,160.7811 " fill="none" id="qa-to-composer:normalize" style="stroke:#1A85FF;stroke-width:2.0;"/><polygon fill="#1A85FF" points="346.539,162.6117,356.3303,163.675,351.3006,161.0862,353.8895,156.0565,346.539,162.6117" style="stroke:#1A85FF;stroke-width:2.0;"/><text fill="#000000" font-family="sans-serif" font-size="13" lengthAdjust="spacing" textLength="61" x="517.5" y="125.3638">depend:1</text></g><!--link qa to composer:validate--><g id="link_qa_composer:validate"><path d="M715.414,70.8659 C691.554,79.5319 650.793,95.1879 617.5,112.2969 C588.649,127.1236 562.3707,143.8487 541.1347,158.1495 " fill="none" id="qa-to-composer:validate" style="stroke:#1A85FF;stroke-width:2.0;"/><polygon fill="#1A85FF" points="536.158,161.501,545.8574,159.7916,540.3053,158.7081,541.3888,153.156,536.158,161.501" style="stroke:#1A85FF;stroke-width:2.0;"/><text fill="#000000" font-family="sans-serif" font-size="13" lengthAdjust="spacing" textLength="61" x="618.5" y="125.3638">depend:2</text></g><!--link qa to cs:fix--><g id="link_qa_cs:fix"><path d="M723.741,75.7069 C715.03,85.0399 703.356,98.6839 695.5,112.2969 C685.509,129.6097 679.8679,145.8836 675.8169,159.8547 " fill="none" id="qa-to-cs:fix" style="stroke:#1A85FF;stroke-width:2.0;"/><polygon fill="#1A85FF" points="674.146,165.6174,680.4941,158.0874,675.5384,160.8152,672.8106,155.8595,674.146,165.6174" style="stroke:#1A85FF;stroke-width:2.0;"/><text fill="#000000" font-family="sans-serif" font-size="13" lengthAdjust="spacing" textLength="61" x="696.5" y="125.3638">depend:3</text></g><!--link qa to cs:check--><g id="link_qa_cs:check"><path d="M742.815,76.5989 C755.301,98.4479 777.6451,137.5517 790.5601,160.1519 " fill="none" id="qa-to-cs:check" style="stroke:#1A85FF;stroke-width:2.0;"/><polygon fill="#1A85FF" points="793.537,165.3613,792.5445,155.5626,791.0562,161.0201,785.5987,159.5318,793.537,165.3613" style="stroke:#1A85FF;stroke-width:2.0;"/><text fill="#000000" font-family="sans-serif" font-size="13" lengthAdjust="spacing" textLength="61" x="773.5" y="125.3638">depend:4</text></g><!--link qa to phpstan:analyse--><g id="link_qa_phpstan:analyse"><path d="M754.372,71.9049 C776.039,81.2979 812.577,97.3979 843.5,112.2969 C878.04,128.9382 911.7602,146.4512 937.9602,160.3205 " fill="none" id="qa-to-phpstan:analyse" style="stroke:#1A85FF;stroke-width:2.0;"/><polygon fill="#1A85FF" points="943.263,163.1276,937.1802,155.3817,938.844,160.7883,933.4373,162.4521,943.263,163.1276" style="stroke:#1A85FF;stroke-width:2.0;"/><text fill="#000000" font-family="sans-serif" font-size="13" lengthAdjust="spacing" textLength="61" x="877.5" y="125.3638">depend:5</text></g><!--link qa to composer:audit--><g id="link_qa_composer:audit"><path d="M757.295,68.2419 C795.859,76.2269 878.555,93.8899 947.5,112.2969 C1009.16,128.758 1073.8719,149.0655 1117.8419,163.3053 " fill="none" id="qa-to-composer:audit" style="stroke:#1A85FF;stroke-width:2.0;"/><polygon fill="#1A85FF" points="1123.55,165.1539,1116.2202,158.5756,1118.7932,163.6134,1113.7554,166.1864,1123.55,165.1539" style="stroke:#1A85FF;stroke-width:2.0;"/><text fill="#000000" font-family="sans-serif" font-size="13" lengthAdjust="spacing" textLength="61" x="1003.5" y="125.3638">depend:6</text></g><!--link docs to plantuml:convert--><g id="link_docs_plantuml:convert"><path d="M1446.6,77.0459 C1429.54,97.7849 1400.3216,133.3181 1381.1216,156.6598 " fill="none" id="docs-to-plantuml:convert" style="stroke:#1A85FF;stroke-width:2.0;"/><polygon fill="#1A85FF" points="1377.31,161.2936,1386.1165,156.884,1380.4863,157.4321,1379.9382,151.8019,1377.31,161.2936" style="stroke:#1A85FF;stroke-width:2.0;"/><text fill="#000000" font-family="sans-serif" font-size="13" lengthAdjust="spacing" textLength="61" x="1417.5" y="125.3638">depend:1</text></g><!--link docs to mkdocs:serve--><g id="link_docs_mkdocs:serve"><path d="M1468.4,77.0459 C1485.94,98.3779 1516.5784,135.6292 1535.4884,158.6185 " fill="none" id="docs-to-mkdocs:serve" style="stroke:#1A85FF;stroke-width:2.0;"/><polygon fill="#1A85FF" points="1539.3,163.2523,1536.6719,153.7605,1536.1237,159.3908,1530.4935,158.8426,1539.3,163.2523" style="stroke:#1A85FF;stroke-width:2.0;"/><text fill="#000000" font-family="sans-serif" font-size="13" lengthAdjust="spacing" textLength="61" x="1512.5" y="125.3638">depend:2</text></g><!--link help to visualizer--><g id="link_help_visualizer"><path d="M1719.5,77.4999 C1719.5,99.6089 1719.5,136.9254 1719.5,159.2516 " fill="none" id="help-to-visualizer" style="stroke:#D41159;stroke-width:2.0;"/><polygon fill="#D41159" points="1719.5,165.2516,1723.5,156.2516,1719.5,160.2516,1715.5,156.2516,1719.5,165.2516" style="stroke:#D41159;stroke-width:2.0;"/><text fill="#000000" font-family="sans-serif" font-size="13" lengthAdjust="spacing" textLength="34" x="1720.5" y="125.3638">call:1</text></g><text fill="#000000" font-family="sans-serif" font-size="14" lengthAdjust="spacing" textLength="327" x="813.5998" y="220.2028">Create diagrams from your doctrine database</text><text fill="#888888" font-family="sans-serif" font-size="10" lengthAdjust="spacing" textLength="77" x="1877.1996" y="234.7868">Phing buildfile</text><!--SRC=[ZP9FRzim3CNl_1G2UaaFEQHjXis70eqpdmjiEmqxA99i2vP5bwBJPPz-yf-ihkCKyytcxv6FV6RBpi0U5PFrHkojB4ZMOjTw7RyRhmNt12ZPi4KFAHd9HkW1328dhCK9MnBwt4HBbWSP1lbP1sIBaaMEo8RWkRI-48VMEftRST1O0iP6C8e3CiVMsf9HGuTGMT_8pjwtKcfyxLhaqiL1RvKd8dpDq7EA3adid5JLlFozjAho9WHnDodz22QDfdTHK136_OSEDrcMVKtJ1H196ngX-_wv1dquS6uMO1KCjysjMF-ysJnztcRPh_MZM2ci6mo64ki3I-TkHIAqQUBbaWsiNkHLtYFLqja_vhyLnuZ74AU2kqL1I7BxUqBTNw5KQLGruHwMkAPiuc8-aLwwKvWEttxeLhRQyeJ-1AluAuQBzavwRckNAFH7G_p-6akAkkg-9d76SNQAqhWXd_t3PhFzqjD76zh-pDInAYRKzHsYxFsFG-1YKRZC5kRhmK8wi9JnQ0wcVk3zAlzUYt8TTt9uwapDpmFdUE4jmRy0]--></g></svg>