<svg xmlns="http://www.w3.org/2000/svg" xmlns:xlink="http://www.w3.org/1999/xlink" contentStyleType="text/css" data-diagram-type="DESCRIPTION" height="224px" preserveAspectRatio="none" style="width:1930px;height:224px;background:#FFFFFF;" version="1.1" viewBox="0 0 1930 224" width="1930px" zoomAndPan="magnify"><title>Doctrine Diagram Bundle</title><defs/><g><text fill="#000000" font-family="sans-serif" font-size="14" font-weight="bold" lengthAdjust="spacing" textLength="198.8916" x="858.643" y="22.9951">Doctrine Diagram Bundle</text><g id="elem_setup"><ellipse cx="84.8218" cy="62.5716" fill="#FFFECC" rx="39.3018" ry="14.5647" style="stroke:#333333;stroke-width:2;"/><text fill="#000000" font-family="sans-serif" font-size="14" lengthAdjust="spacing" textLength="39.1563" x="63.0826" y="66.1067">setup</text></g><g id="elem_composer:install"><ellipse cx="84.8174" cy="179.3404" fill="#FFFECC" rx="78.8174" ry="18.1635" style="stroke:#333333;stroke-width:2;"/><text fill="#000000" font-family="sans-serif" font-size="14" lengthAdjust="spacing" textLength="115.6367" x="24.8755" y="182.8523">composer:install</text></g><g id="elem_qa"><ellipse cx="719.8155" cy="62.5705" fill="#FFFECC" rx="23.8355" ry="14.5236" style="stroke:#333333;stroke-width:2;"/><text fill="#000000" font-family="sans-serif" font-size="14" lengthAdjust="spacing" textLength="17.4658" x="711.0826" y="65.4172">qa</text></g><g id="elem_composer:normalize"><ellipse cx="288.8157" cy="179.338" fill="#FFFECC" rx="90.5057" ry="20.5011" style="stroke:#333333;stroke-width:2;"/><text fill="#000000" font-family="sans-serif" font-size="14" lengthAdjust="spacing" textLength="142.8848" x="217.3733" y="182.1847">composer:normalize</text></g><g id="elem_composer:validate"><ellipse cx="498.815" cy="179.3339" fill="#FFFECC" rx="84.835" ry="19.367" style="stroke:#333333;stroke-width:2;"/><text fill="#000000" font-family="sans-serif" font-size="14" lengthAdjust="spacing" textLength="129.9443" x="433.8429" y="182.1806">composer:validate</text></g><g id="elem_cs:fix"><ellipse cx="655.8158" cy="179.3342" fill="#FFFECC" rx="37.5858" ry="14.5473" style="stroke:#333333;stroke-width:2;"/><text fill="#000000" font-family="sans-serif" font-size="14" lengthAdjust="spacing" textLength="36.8115" x="635.8453" y="182.7033">cs:fix</text></g><g id="elem_cs:check"><ellipse cx="783.82" cy="179.3348" fill="#FFFECC" rx="55.36" ry="14.7379" style="stroke:#333333;stroke-width:2;"/><text fill="#000000" font-family="sans-serif" font-size="14" lengthAdjust="spacing" textLength="60.6963" x="750.4719" y="183.0824">cs:check</text></g><g id="elem_phpstan:analyse"><ellipse cx="952.818" cy="179.3365" fill="#FFFECC" rx="78.848" ry="18.1696" style="stroke:#333333;stroke-width:2;"/><text fill="#000000" font-family="sans-serif" font-size="14" lengthAdjust="spacing" textLength="115.7119" x="892.8506" y="182.845">phpstan:analyse</text></g><g id="elem_composer:audit"><ellipse cx="1142.8247" cy="179.3358" fill="#FFFECC" rx="76.3447" ry="17.6689" style="stroke:#333333;stroke-width:2;"/><text fill="#000000" font-family="sans-serif" font-size="14" lengthAdjust="spacing" textLength="109.4502" x="1085.0996" y="183.0834">composer:audit</text></g><g id="elem_docs"><ellipse cx="1427.8156" cy="62.564" fill="#FFFECC" rx="34.4356" ry="14.5271" style="stroke:#333333;stroke-width:2;"/><text fill="#000000" font-family="sans-serif" font-size="14" lengthAdjust="spacing" textLength="32.4434" x="1411.0506" y="65.6099">docs</text></g><g id="elem_plantuml:convert"><ellipse cx="1334.8182" cy="179.3385" fill="#FFFECC" rx="80.6582" ry="18.5316" style="stroke:#333333;stroke-width:2;"/><text fill="#000000" font-family="sans-serif" font-size="14" lengthAdjust="spacing" textLength="120.1143" x="1273.3404" y="182.6459">plantuml:convert</text></g><g id="elem_mkdocs:serve"><ellipse cx="1521.8184" cy="179.3326" fill="#FFFECC" rx="71.7284" ry="16.7457" style="stroke:#333333;stroke-width:2;"/><text fill="#000000" font-family="sans-serif" font-size="14" lengthAdjust="spacing" textLength="97.4668" x="1470.085" y="183.0801">mkdocs:serve</text></g><g id="elem_help"><ellipse cx="1687.8245" cy="62.5706" fill="#FFFECC" rx="32.8845" ry="14.5237" style="stroke:#333333;stroke-width:2;"/><text fill="#000000" font-family="sans-serif" font-size="14" lengthAdjust="spacing" textLength="30.2627" x="1672.6121" y="65.4485">help</text></g><g id="elem_visualizer"><ellipse cx="1687.8218" cy="179.3361" fill="#FFFECC" rx="59.6318" ry="14.7693" style="stroke:#333333;stroke-width:2;"/><text fill="#000000" font-family="sans-serif" font-size="14" lengthAdjust="spacing" textLength="66.418" x="1651.6128" y="183.0837">visualizer</text></g><g id="elem_mkdocs:gh-deploy"><ellipse cx="1839.8188" cy="62.5686" fill="#FFFECC" rx="84.3588" ry="19.2718" style="stroke:#333333;stroke-width:2;"/><text fill="#000000" font-family="sans-serif" font-size="14" lengthAdjust="spacing" textLength="128.8438" x="1775.2538" y="65.4648">mkdocs:gh-deploy</text></g><!--link setup to composer:install--><g id="link_setup_composer:install"><path d="M84.82,77.1769 C84.82,98.0769 84.82,132.0569 84.82,154.9969 " fill="#FFFFFF" fill-opacity="0.00000" id="setup-to-composer:install" style="stroke:#1A85FF;stroke-width:2;"/><polygon fill="#1A85FF" points="84.82,160.9969,88.82,151.9969,84.82,155.9969,80.82,151.9969,84.82,160.9969" style="stroke:#1A85FF;stroke-width:2;"/><text fill="#000000" font-family="sans-serif" font-size="13" lengthAdjust="spacing" textLength="61.6421" x="85.82" y="124.9038">depend:1</text></g><!--link qa to composer:normalize--><g id="link_qa_composer:normalize"><path d="M697.28,67.8569 C657.4,75.6069 571.92,92.8869 500.82,111.8369 C444.35,126.8869 386.1616,145.5079 343.4216,159.7679 " fill="#FFFFFF" fill-opacity="0.00000" id="qa-to-composer:normalize" style="stroke:#1A85FF;stroke-width:2;"/><polygon fill="#1A85FF" points="337.73,161.6669,347.5333,162.6128,342.473,160.0844,345.0014,155.0241,337.73,161.6669" style="stroke:#1A85FF;stroke-width:2;"/><text fill="#000000" font-family="sans-serif" font-size="13" lengthAdjust="spacing" textLength="61.6421" x="501.82" y="124.9038">depend:1</text></g><!--link qa to composer:validate--><g id="link_qa_composer:validate"><path d="M699.31,70.3969 C674.97,78.8369 633.44,94.2269 599.82,111.8369 C572.29,126.2469 547.7198,142.7357 527.7598,157.0157 " fill="#FFFFFF" fill-opacity="0.00000" id="qa-to-composer:validate" style="stroke:#1A85FF;stroke-width:2;"/><polygon fill="#1A85FF" points="522.88,160.5069,532.5271,158.5234,526.9465,157.5976,527.8722,152.017,522.88,160.5069" style="stroke:#1A85FF;stroke-width:2;"/><text fill="#000000" font-family="sans-serif" font-size="13" lengthAdjust="spacing" textLength="61.6421" x="600.82" y="124.9038">depend:2</text></g><!--link qa to cs:fix--><g id="link_qa_cs:fix"><path d="M707.28,75.2169 C698.03,84.3969 685.73,97.9369 677.82,111.8369 C668.19,128.7369 663.3742,144.6464 660.0942,158.5864 " fill="#FFFFFF" fill-opacity="0.00000" id="qa-to-cs:fix" style="stroke:#1A85FF;stroke-width:2;"/><polygon fill="#1A85FF" points="658.72,164.4269,664.675,156.5823,659.8652,159.5598,656.8877,154.75,658.72,164.4269" style="stroke:#1A85FF;stroke-width:2;"/><text fill="#000000" font-family="sans-serif" font-size="13" lengthAdjust="spacing" textLength="61.6421" x="678.82" y="124.9038">depend:3</text></g><!--link qa to cs:check--><g id="link_qa_cs:check"><path d="M727.16,76.7269 C739.31,98.5169 760.5686,136.6361 773.0386,159.0061 " fill="#FFFFFF" fill-opacity="0.00000" id="qa-to-cs:check" style="stroke:#1A85FF;stroke-width:2;"/><polygon fill="#1A85FF" points="775.96,164.2469,775.0717,154.4382,773.5255,159.8796,768.0841,158.3334,775.96,164.2469" style="stroke:#1A85FF;stroke-width:2;"/><text fill="#000000" font-family="sans-serif" font-size="13" lengthAdjust="spacing" textLength="61.6421" x="756.82" y="124.9038">depend:4</text></g><!--link qa to phpstan:analyse--><g id="link_qa_phpstan:analyse"><path d="M738.92,71.7569 C760.46,81.0869 796.43,96.9769 826.82,111.8369 C860.26,128.1869 892.6593,145.4299 918.0293,159.2299 " fill="#FFFFFF" fill-opacity="0.00000" id="qa-to-phpstan:analyse" style="stroke:#1A85FF;stroke-width:2;"/><polygon fill="#1A85FF" points="923.3,162.0969,917.3053,154.2826,918.9077,159.7077,913.4826,161.3102,923.3,162.0969" style="stroke:#1A85FF;stroke-width:2;"/><text fill="#000000" font-family="sans-serif" font-size="13" lengthAdjust="spacing" textLength="61.6421" x="859.82" y="124.9038">depend:5</text></g><!--link qa to composer:audit--><g id="link_qa_composer:audit"><path d="M742.33,68.1469 C780.93,76.1369 862.11,93.5169 929.82,111.8369 C989.84,128.0769 1052.6244,148.2099 1095.3644,162.3699 " fill="#FFFFFF" fill-opacity="0.00000" id="qa-to-composer:audit" style="stroke:#1A85FF;stroke-width:2;"/><polygon fill="#1A85FF" points="1101.06,164.2569,1093.7746,157.6294,1096.3137,162.6844,1091.2587,165.2235,1101.06,164.2569" style="stroke:#1A85FF;stroke-width:2;"/><text fill="#000000" font-family="sans-serif" font-size="13" lengthAdjust="spacing" textLength="61.6421" x="989.82" y="124.9038">depend:6</text></g><!--link docs to plantuml:convert--><g id="link_docs_plantuml:convert"><path d="M1417.15,76.7269 C1400.35,97.4569 1371.5183,133.0459 1352.7683,156.1759 " fill="#FFFFFF" fill-opacity="0.00000" id="docs-to-plantuml:convert" style="stroke:#1A85FF;stroke-width:2;"/><polygon fill="#1A85FF" points="1348.99,160.8369,1357.7648,156.3644,1352.1386,156.9528,1351.5502,151.3266,1348.99,160.8369" style="stroke:#1A85FF;stroke-width:2;"/><text fill="#000000" font-family="sans-serif" font-size="13" lengthAdjust="spacing" textLength="61.6421" x="1387.82" y="124.9038">depend:1</text></g><!--link docs to mkdocs:serve--><g id="link_docs_mkdocs:serve"><path d="M1438.6,76.7269 C1455.96,97.9269 1486.2488,134.9046 1504.9588,157.7546 " fill="#FFFFFF" fill-opacity="0.00000" id="docs-to-mkdocs:serve" style="stroke:#1A85FF;stroke-width:2;"/><polygon fill="#1A85FF" points="1508.76,162.3969,1506.1531,152.8993,1505.5923,158.5283,1499.9633,157.9676,1508.76,162.3969" style="stroke:#1A85FF;stroke-width:2;"/><text fill="#000000" font-family="sans-serif" font-size="13" lengthAdjust="spacing" textLength="61.6421" x="1480.82" y="124.9038">depend:2</text></g><!--link help to visualizer--><g id="link_help_visualizer"><path d="M1687.82,77.1769 C1687.82,99.1469 1687.82,136.1969 1687.82,158.3769 " fill="#FFFFFF" fill-opacity="0.00000" id="help-to-visualizer" style="stroke:#D41159;stroke-width:2;"/><polygon fill="#D41159" points="1687.82,164.3769,1691.82,155.3769,1687.82,159.3769,1683.82,155.3769,1687.82,164.3769" style="stroke:#D41159;stroke-width:2;"/><text fill="#000000" font-family="sans-serif" font-size="13" lengthAdjust="spacing" textLength="34.9883" x="1688.82" y="124.9038">call:1</text></g><text fill="#888888" font-family="sans-serif" font-size="10" lengthAdjust="spacing" textLength="70.8301" x="1845.3474" y="214.1214">Phing buildfile</text><!--SRC=[ZP5DJyCm38Rl_XMHk8p33XiCGGz8-w1d9E24E8J4QwEcSKdSyV7hIRi2fUiGlJL-RB-lNpPi4JQas1k7OcDavcKfLhNJyHsT5jmIu4sMizWICNgupOtBn7DjhDwQZkjAm5G99l5Cp5GARJmgDkG0Gc5S9PlfTxdKzDgCs4eRi5TPUa-lAJbUaoKlLbQgObY-puqg78OWvhtIGy2r3BYA3PcdA7y_uIHDqvlrUWGahz5tq5dx7OF-N3WK2p09o7LrAgQF9xFbvI9DdwRNOgAeh2YWJumBBAqz5OdGMCNB9JEOlCYZl2DVIci-yDyTkuXhoVs6-MX3IBRchKUT7Q5KZgheSUTZN9LNqPXBf9FsFVINB_vKAsjjk4TVm4IJ2WVZhNHSbpPHv7Re-VSrnZhAedbDuexTu1Gvsdq-c_FPR77LqZiJwlRClc5LJAYPku-orTyjWGEZS9Wj3Et1I3embd4d3lfwuBULxzyidqPFbjuRKSFpm5Uyy9FW9m00]--></g></svg>