<svg xmlns="http://www.w3.org/2000/svg" xmlns:xlink="http://www.w3.org/1999/xlink" contentStyleType="text/css" data-diagram-type="CLASS" height="1083.3333px" preserveAspectRatio="none" style="width:1268px;height:1083px;" version="1.1" viewBox="0 0 1268 1083" width="1268.75px" zoomAndPan="magnify"><title>main</title><defs><linearGradient id="g1w1grl1h5ko550" x1="50%" x2="50%" y1="0%" y2="100%"><stop offset="0%" stop-color="#999890"/><stop offset="100%" stop-color="#8E8C84"/></linearGradient></defs><g><g class="title" data-source-line="5"><rect fill="url(#g1w1grl1h5ko550)" height="47.168" rx="4.1667" ry="4.1667" style="stroke:#807E77;stroke-width:1.0417;" width="80.6559" x="589.7494" y="20.8333"/><text fill="#325D88" font-family="Verdana" font-size="20.8333" font-weight="bold" lengthAdjust="spacing" textLength="57.7393" x="601.2077" y="51.6296">main</text></g><!--class appointment--><g class="entity" data-entity="appointment" data-source-line="7" data-uid="ent0002" id="entity_appointment"><rect fill="#325D88" height="193.3675" rx="4.1667" ry="4.1667" style="stroke:#2D547A;stroke-width:1.0417;" width="268.2546" x="364.8333" y="342.6263"/><rect fill="#476D94" height="34.1715" rx="4.1667" ry="4.1667" style="stroke:#476D94;stroke-width:1.0417;" width="268.2546" x="364.8333" y="342.6263"/><rect fill="#476D94" height="4.1667" style="stroke:#476D94;stroke-width:1.0417;" width="268.2546" x="364.8333" y="372.6312"/><rect fill="none" height="193.3675" rx="4.1667" ry="4.1667" style="stroke:#2D547A;stroke-width:1.0417;" width="268.2546" x="364.8333" y="342.6263"/><text fill="#FFFFFF" font-family="Verdana" font-size="11.4583" lengthAdjust="spacing" textLength="73.4833" x="462.219" y="363.6789">appointment</text><line style="stroke:#2D547A;stroke-width:1.0417;" x1="365.875" x2="632.0463" y1="376.7979" y2="376.7979"/><ellipse cx="376.2917" cy="394.4045" fill="none" rx="3.125" ry="3.125" style="stroke:#2D547A;stroke-width:1.0417;"/><text fill="#FFFFFF" font-family="Verdana" font-size="11.4583" lengthAdjust="spacing" textLength="58.9813" x="389.8333" y="396.8087">id: integer</text><line style="stroke:#2D547A;stroke-width:1.0417;" x1="365.875" x2="632.0463" y1="408.8861" y2="408.8861"/><ellipse cx="376.2917" cy="426.4927" fill="none" rx="3.125" ry="3.125" style="stroke:#2D547A;stroke-width:1.0417;"/><text fill="#FFFFFF" font-family="Verdana" font-size="11.4583" lengthAdjust="spacing" textLength="90.2623" x="389.8333" y="428.897">staff_id: integer</text><ellipse cx="376.2917" cy="450.2476" fill="none" rx="3.125" ry="3.125" style="stroke:#2D547A;stroke-width:1.0417;"/><text fill="#FFFFFF" font-family="Verdana" font-size="11.4583" lengthAdjust="spacing" textLength="105.5196" x="389.8333" y="452.6518">vehicle_id: integer</text><ellipse cx="376.2917" cy="474.0024" fill="none" rx="3.125" ry="3.125" style="stroke:#2D547A;stroke-width:1.0417;"/><text fill="#FFFFFF" font-family="Verdana" font-size="11.4583" lengthAdjust="spacing" textLength="118.6676" x="389.8333" y="476.4067">customer_id: integer</text><ellipse cx="376.2917" cy="497.7573" fill="none" rx="3.125" ry="3.125" style="stroke:#2D547A;stroke-width:1.0417;"/><text fill="#FFFFFF" font-family="Verdana" font-size="11.4583" lengthAdjust="spacing" textLength="231.7963" x="389.8333" y="500.1616">appointment_date: datetime_immutable</text><ellipse cx="376.2917" cy="521.5122" fill="none" rx="3.125" ry="3.125" style="stroke:#2D547A;stroke-width:1.0417;"/><text fill="#FFFFFF" font-family="Verdana" font-size="11.4583" lengthAdjust="spacing" textLength="62.1033" x="389.8333" y="523.9165">notes: text</text></g><!--class contact_info--><g class="entity" data-entity="contact_info" data-source-line="16" data-uid="ent0003" id="entity_contact_info"><rect fill="#325D88" height="217.1224" rx="4.1667" ry="4.1667" style="stroke:#2D547A;stroke-width:1.0417;" width="156.25" x="17.7083" y="598.4909"/><rect fill="#476D94" height="34.1715" rx="4.1667" ry="4.1667" style="stroke:#476D94;stroke-width:1.0417;" width="156.25" x="17.7083" y="598.4909"/><rect fill="#476D94" height="4.1667" style="stroke:#476D94;stroke-width:1.0417;" width="156.25" x="17.7083" y="628.4958"/><rect fill="none" height="217.1224" rx="4.1667" ry="4.1667" style="stroke:#2D547A;stroke-width:1.0417;" width="156.25" x="17.7083" y="598.4909"/><text fill="#FFFFFF" font-family="Verdana" font-size="11.4583" lengthAdjust="spacing" textLength="70.0984" x="60.7841" y="619.5434">contact_info</text><line style="stroke:#2D547A;stroke-width:1.0417;" x1="18.75" x2="172.9167" y1="632.6624" y2="632.6624"/><ellipse cx="29.1667" cy="650.269" fill="none" rx="3.125" ry="3.125" style="stroke:#2D547A;stroke-width:1.0417;"/><text fill="#FFFFFF" font-family="Verdana" font-size="11.4583" lengthAdjust="spacing" textLength="58.9813" x="42.7083" y="652.6733">id: integer</text><line style="stroke:#2D547A;stroke-width:1.0417;" x1="18.75" x2="172.9167" y1="664.7507" y2="664.7507"/><ellipse cx="29.1667" cy="682.3573" fill="none" rx="3.125" ry="3.125" style="stroke:#2D547A;stroke-width:1.0417;"/><text fill="#FFFFFF" font-family="Verdana" font-size="11.4583" lengthAdjust="spacing" textLength="103.9866" x="42.7083" y="684.7615">person_id: integer</text><ellipse cx="29.1667" cy="706.1121" fill="none" rx="3.125" ry="3.125" style="stroke:#2D547A;stroke-width:1.0417;"/><text fill="#FFFFFF" font-family="Verdana" font-size="11.4583" lengthAdjust="spacing" textLength="85.6634" x="42.7083" y="708.5164">address: string</text><ellipse cx="29.1667" cy="729.867" fill="none" rx="3.125" ry="3.125" style="stroke:#2D547A;stroke-width:1.0417;"/><text fill="#FFFFFF" font-family="Verdana" font-size="11.4583" lengthAdjust="spacing" textLength="61.1521" x="42.7083" y="732.2713">city: string</text><ellipse cx="29.1667" cy="753.6219" fill="none" rx="3.125" ry="3.125" style="stroke:#2D547A;stroke-width:1.0417;"/><text fill="#FFFFFF" font-family="Verdana" font-size="11.4583" lengthAdjust="spacing" textLength="69.4214" x="42.7083" y="756.0262">state: string</text><text fill="#FFFFFF" font-family="Verdana" font-size="11.4583" lengthAdjust="spacing" textLength="76.2527" x="42.7083" y="779.7811">phone: string</text><ellipse cx="29.1667" cy="801.1317" fill="none" rx="3.125" ry="3.125" style="stroke:#2D547A;stroke-width:1.0417;"/><text fill="#FFFFFF" font-family="Verdana" font-size="11.4583" lengthAdjust="spacing" textLength="71.995" x="42.7083" y="803.5359">email: string</text></g><!--class customer--><g class="entity" data-entity="customer" data-source-line="26" data-uid="ent0004" id="entity_customer"><rect fill="#325D88" height="98.348" rx="4.1667" ry="4.1667" style="stroke:#2D547A;stroke-width:1.0417;" width="156.25" x="210.4167" y="657.8763"/><rect fill="#476D94" height="34.1715" rx="4.1667" ry="4.1667" style="stroke:#476D94;stroke-width:1.0417;" width="156.25" x="210.4167" y="657.8763"/><rect fill="#476D94" height="4.1667" style="stroke:#476D94;stroke-width:1.0417;" width="156.25" x="210.4167" y="687.8812"/><rect fill="none" height="98.348" rx="4.1667" ry="4.1667" style="stroke:#2D547A;stroke-width:1.0417;" width="156.25" x="210.4167" y="657.8763"/><text fill="#FFFFFF" font-family="Verdana" font-size="11.4583" lengthAdjust="spacing" textLength="53.9571" x="261.5631" y="678.9289">customer</text><line style="stroke:#2D547A;stroke-width:1.0417;" x1="211.4583" x2="365.625" y1="692.0479" y2="692.0479"/><ellipse cx="221.875" cy="709.6545" fill="none" rx="3.125" ry="3.125" style="stroke:#2D547A;stroke-width:1.0417;"/><text fill="#FFFFFF" font-family="Verdana" font-size="11.4583" lengthAdjust="spacing" textLength="58.9813" x="235.4167" y="712.0587">id: integer</text><line style="stroke:#2D547A;stroke-width:1.0417;" x1="211.4583" x2="365.625" y1="724.1361" y2="724.1361"/><ellipse cx="221.875" cy="741.7427" fill="none" rx="3.125" ry="3.125" style="stroke:#2D547A;stroke-width:1.0417;"/><text fill="#FFFFFF" font-family="Verdana" font-size="11.4583" lengthAdjust="spacing" textLength="70.5516" x="235.4167" y="744.147">vip: boolean</text></g><!--class doctrine_migration_versions--><g class="entity" data-entity="doctrine_migration_versions" data-source-line="31" data-uid="ent0005" id="entity_doctrine_migration_versions"><rect fill="#325D88" height="122.1029" rx="4.1667" ry="4.1667" style="stroke:#2D547A;stroke-width:1.0417;" width="178.6443" x="1078.3854" y="122.3867"/><rect fill="#476D94" height="34.1715" rx="4.1667" ry="4.1667" style="stroke:#476D94;stroke-width:1.0417;" width="178.6443" x="1078.3854" y="122.3867"/><rect fill="#476D94" height="4.1667" style="stroke:#476D94;stroke-width:1.0417;" width="178.6443" x="1078.3854" y="152.3916"/><rect fill="none" height="122.1029" rx="4.1667" ry="4.1667" style="stroke:#2D547A;stroke-width:1.0417;" width="178.6443" x="1078.3854" y="122.3867"/><text fill="#FFFFFF" font-family="Verdana" font-size="11.4583" lengthAdjust="spacing" textLength="161.9776" x="1086.7188" y="143.4393">doctrine_migration_versions</text><line style="stroke:#2D547A;stroke-width:1.0417;" x1="1079.4271" x2="1255.9881" y1="156.5583" y2="156.5583"/><ellipse cx="1089.8438" cy="174.1649" fill="none" rx="3.125" ry="3.125" style="stroke:#2D547A;stroke-width:1.0417;"/><text fill="#FFFFFF" font-family="Verdana" font-size="11.4583" lengthAdjust="spacing" textLength="82.3624" x="1103.3854" y="176.5692">version: string</text><line style="stroke:#2D547A;stroke-width:1.0417;" x1="1079.4271" x2="1255.9881" y1="188.6465" y2="188.6465"/><text fill="#FFFFFF" font-family="Verdana" font-size="11.4583" lengthAdjust="spacing" textLength="129.7287" x="1089.8438" y="208.6574">executed_at: datetime</text><text fill="#FFFFFF" font-family="Verdana" font-size="11.4583" lengthAdjust="spacing" textLength="136.5321" x="1089.8438" y="232.4123">execution_time: integer</text></g><!--class feedback--><g class="entity" data-entity="feedback" data-source-line="37" data-uid="ent0006" id="entity_feedback"><rect fill="#325D88" height="193.3675" rx="4.1667" ry="4.1667" style="stroke:#2D547A;stroke-width:1.0417;" width="247.408" x="164.8333" y="86.7513"/><rect fill="#476D94" height="34.1715" rx="4.1667" ry="4.1667" style="stroke:#476D94;stroke-width:1.0417;" width="247.408" x="164.8333" y="86.7513"/><rect fill="#476D94" height="4.1667" style="stroke:#476D94;stroke-width:1.0417;" width="247.408" x="164.8333" y="116.7562"/><rect fill="none" height="193.3675" rx="4.1667" ry="4.1667" style="stroke:#2D547A;stroke-width:1.0417;" width="247.408" x="164.8333" y="86.7513"/><text fill="#FFFFFF" font-family="Verdana" font-size="11.4583" lengthAdjust="spacing" textLength="52.6367" x="262.219" y="107.8039">feedback</text><line style="stroke:#2D547A;stroke-width:1.0417;" x1="165.875" x2="411.1997" y1="120.9229" y2="120.9229"/><ellipse cx="176.2917" cy="138.5295" fill="none" rx="3.125" ry="3.125" style="stroke:#2D547A;stroke-width:1.0417;"/><text fill="#FFFFFF" font-family="Verdana" font-size="11.4583" lengthAdjust="spacing" textLength="58.9813" x="189.8333" y="140.9337">id: integer</text><line style="stroke:#2D547A;stroke-width:1.0417;" x1="165.875" x2="411.1997" y1="153.0111" y2="153.0111"/><ellipse cx="176.2917" cy="170.6177" fill="none" rx="3.125" ry="3.125" style="stroke:#2D547A;stroke-width:1.0417;"/><text fill="#FFFFFF" font-family="Verdana" font-size="11.4583" lengthAdjust="spacing" textLength="138.1938" x="189.8333" y="173.022">appointment_id: integer</text><ellipse cx="176.2917" cy="194.3726" fill="none" rx="3.125" ry="3.125" style="stroke:#2D547A;stroke-width:1.0417;"/><text fill="#FFFFFF" font-family="Verdana" font-size="11.4583" lengthAdjust="spacing" textLength="118.6676" x="189.8333" y="196.7768">customer_id: integer</text><ellipse cx="176.2917" cy="218.1274" fill="none" rx="3.125" ry="3.125" style="stroke:#2D547A;stroke-width:1.0417;"/><text fill="#FFFFFF" font-family="Verdana" font-size="11.4583" lengthAdjust="spacing" textLength="82.4687" x="189.8333" y="220.5317">rating: integer</text><text fill="#FFFFFF" font-family="Verdana" font-size="11.4583" lengthAdjust="spacing" textLength="90.7267" x="189.8333" y="244.2866">comments: text</text><ellipse cx="176.2917" cy="265.6372" fill="none" rx="3.125" ry="3.125" style="stroke:#2D547A;stroke-width:1.0417;"/><text fill="#FFFFFF" font-family="Verdana" font-size="11.4583" lengthAdjust="spacing" textLength="210.9497" x="189.8333" y="268.0415">feedback_date: datetime_immutable</text></g><!--class invoice--><g class="entity" data-entity="invoice" data-source-line="46" data-uid="ent0007" id="entity_invoice"><rect fill="#325D88" height="193.3675" rx="4.1667" ry="4.1667" style="stroke:#2D547A;stroke-width:1.0417;" width="177.8748" x="448.5625" y="86.7513"/><rect fill="#476D94" height="34.1715" rx="4.1667" ry="4.1667" style="stroke:#476D94;stroke-width:1.0417;" width="177.8748" x="448.5625" y="86.7513"/><rect fill="#476D94" height="4.1667" style="stroke:#476D94;stroke-width:1.0417;" width="177.8748" x="448.5625" y="116.7562"/><rect fill="none" height="193.3675" rx="4.1667" ry="4.1667" style="stroke:#2D547A;stroke-width:1.0417;" width="177.8748" x="448.5625" y="86.7513"/><text fill="#FFFFFF" font-family="Verdana" font-size="11.4583" lengthAdjust="spacing" textLength="40.77" x="517.1149" y="107.8039">invoice</text><line style="stroke:#2D547A;stroke-width:1.0417;" x1="449.6042" x2="625.3956" y1="120.9229" y2="120.9229"/><ellipse cx="460.0208" cy="138.5295" fill="none" rx="3.125" ry="3.125" style="stroke:#2D547A;stroke-width:1.0417;"/><text fill="#FFFFFF" font-family="Verdana" font-size="11.4583" lengthAdjust="spacing" textLength="58.9813" x="473.5625" y="140.9337">id: integer</text><line style="stroke:#2D547A;stroke-width:1.0417;" x1="449.6042" x2="625.3956" y1="153.0111" y2="153.0111"/><ellipse cx="460.0208" cy="170.6177" fill="none" rx="3.125" ry="3.125" style="stroke:#2D547A;stroke-width:1.0417;"/><text fill="#FFFFFF" font-family="Verdana" font-size="11.4583" lengthAdjust="spacing" textLength="138.1938" x="473.5625" y="173.022">appointment_id: integer</text><ellipse cx="460.0208" cy="194.3726" fill="none" rx="3.125" ry="3.125" style="stroke:#2D547A;stroke-width:1.0417;"/><text fill="#FFFFFF" font-family="Verdana" font-size="11.4583" lengthAdjust="spacing" textLength="131.5638" x="473.5625" y="196.7768">invoice_date: datetime</text><ellipse cx="460.0208" cy="218.1274" fill="none" rx="3.125" ry="3.125" style="stroke:#2D547A;stroke-width:1.0417;"/><text fill="#FFFFFF" font-family="Verdana" font-size="11.4583" lengthAdjust="spacing" textLength="128.8167" x="473.5625" y="220.5317">total_amount: decimal</text><ellipse cx="460.0208" cy="241.8823" fill="none" rx="3.125" ry="3.125" style="stroke:#2D547A;stroke-width:1.0417;"/><text fill="#FFFFFF" font-family="Verdana" font-size="11.4583" lengthAdjust="spacing" textLength="141.4164" x="473.5625" y="244.2866">payment_method: string</text><ellipse cx="460.0208" cy="265.6372" fill="none" rx="3.125" ry="3.125" style="stroke:#2D547A;stroke-width:1.0417;"/><text fill="#FFFFFF" font-family="Verdana" font-size="11.4583" lengthAdjust="spacing" textLength="78.0655" x="473.5625" y="268.0415">paid: boolean</text></g><!--class part--><g class="entity" data-entity="part" data-source-line="55" data-uid="ent0008" id="entity_part"><rect fill="#325D88" height="169.6126" rx="4.1667" ry="4.1667" style="stroke:#2D547A;stroke-width:1.0417;" width="168.8894" x="891.5938" y="354.5013"/><rect fill="#476D94" height="34.1715" rx="4.1667" ry="4.1667" style="stroke:#476D94;stroke-width:1.0417;" width="168.8894" x="891.5938" y="354.5013"/><rect fill="#476D94" height="4.1667" style="stroke:#476D94;stroke-width:1.0417;" width="168.8894" x="891.5938" y="384.5062"/><rect fill="none" height="169.6126" rx="4.1667" ry="4.1667" style="stroke:#2D547A;stroke-width:1.0417;" width="168.8894" x="891.5938" y="354.5013"/><text fill="#FFFFFF" font-family="Verdana" font-size="11.4583" lengthAdjust="spacing" textLength="23.4985" x="964.2892" y="375.5539">part</text><line style="stroke:#2D547A;stroke-width:1.0417;" x1="892.6354" x2="1059.4414" y1="388.6729" y2="388.6729"/><ellipse cx="903.0521" cy="406.2795" fill="none" rx="3.125" ry="3.125" style="stroke:#2D547A;stroke-width:1.0417;"/><text fill="#FFFFFF" font-family="Verdana" font-size="11.4583" lengthAdjust="spacing" textLength="58.9813" x="916.5938" y="408.6837">id: integer</text><line style="stroke:#2D547A;stroke-width:1.0417;" x1="892.6354" x2="1059.4414" y1="420.7611" y2="420.7611"/><ellipse cx="903.0521" cy="438.3677" fill="none" rx="3.125" ry="3.125" style="stroke:#2D547A;stroke-width:1.0417;"/><text fill="#FFFFFF" font-family="Verdana" font-size="11.4583" lengthAdjust="spacing" textLength="102.1179" x="916.5938" y="440.772">part_name: string</text><ellipse cx="903.0521" cy="462.1226" fill="none" rx="3.125" ry="3.125" style="stroke:#2D547A;stroke-width:1.0417;"/><text fill="#FFFFFF" font-family="Verdana" font-size="11.4583" lengthAdjust="spacing" textLength="104.1041" x="916.5938" y="464.5268">description: string</text><ellipse cx="903.0521" cy="485.8774" fill="none" rx="3.125" ry="3.125" style="stroke:#2D547A;stroke-width:1.0417;"/><text fill="#FFFFFF" font-family="Verdana" font-size="11.4583" lengthAdjust="spacing" textLength="81.193" x="916.5938" y="488.2817">price: decimal</text><ellipse cx="903.0521" cy="509.6323" fill="none" rx="3.125" ry="3.125" style="stroke:#2D547A;stroke-width:1.0417;"/><text fill="#FFFFFF" font-family="Verdana" font-size="11.4583" lengthAdjust="spacing" textLength="132.431" x="916.5938" y="512.0366">stock_quantity: integer</text></g><!--class person--><g class="entity" data-entity="person" data-source-line="63" data-uid="ent0009" id="entity_person"><rect fill="#325D88" height="193.3675" rx="4.1667" ry="4.1667" style="stroke:#2D547A;stroke-width:1.0417;" width="224.3459" x="176.3646" y="878.1159"/><rect fill="#476D94" height="34.1715" rx="4.1667" ry="4.1667" style="stroke:#476D94;stroke-width:1.0417;" width="224.3459" x="176.3646" y="878.1159"/><rect fill="#476D94" height="4.1667" style="stroke:#476D94;stroke-width:1.0417;" width="224.3459" x="176.3646" y="908.1208"/><rect fill="none" height="193.3675" rx="4.1667" ry="4.1667" style="stroke:#2D547A;stroke-width:1.0417;" width="224.3459" x="176.3646" y="878.1159"/><text fill="#FFFFFF" font-family="Verdana" font-size="11.4583" lengthAdjust="spacing" textLength="39.2761" x="268.8995" y="899.1684">person</text><line style="stroke:#2D547A;stroke-width:1.0417;" x1="177.4063" x2="399.6688" y1="912.2874" y2="912.2874"/><ellipse cx="187.8229" cy="929.894" fill="none" rx="3.125" ry="3.125" style="stroke:#2D547A;stroke-width:1.0417;"/><text fill="#FFFFFF" font-family="Verdana" font-size="11.4583" lengthAdjust="spacing" textLength="58.9813" x="201.3646" y="932.2983">id: integer</text><line style="stroke:#2D547A;stroke-width:1.0417;" x1="177.4063" x2="399.6688" y1="944.3757" y2="944.3757"/><ellipse cx="187.8229" cy="961.9823" fill="none" rx="3.125" ry="3.125" style="stroke:#2D547A;stroke-width:1.0417;"/><text fill="#FFFFFF" font-family="Verdana" font-size="11.4583" lengthAdjust="spacing" textLength="101.0101" x="201.3646" y="964.3865">first_name: string</text><ellipse cx="187.8229" cy="985.7371" fill="none" rx="3.125" ry="3.125" style="stroke:#2D547A;stroke-width:1.0417;"/><text fill="#FFFFFF" font-family="Verdana" font-size="11.4583" lengthAdjust="spacing" textLength="99.2869" x="201.3646" y="988.1414">last_name: string</text><text fill="#FFFFFF" font-family="Verdana" font-size="11.4583" lengthAdjust="spacing" textLength="159.348" x="201.3646" y="1011.8963">birth_date: date_immutable</text><ellipse cx="187.8229" cy="1033.2469" fill="none" rx="3.125" ry="3.125" style="stroke:#2D547A;stroke-width:1.0417;"/><text fill="#FFFFFF" font-family="Verdana" font-size="11.4583" lengthAdjust="spacing" textLength="187.8876" x="201.3646" y="1035.6512">created_at: datetime_immutable</text><ellipse cx="187.8229" cy="1057.0018" fill="none" rx="3.125" ry="3.125" style="stroke:#2D547A;stroke-width:1.0417;"/><text fill="#FFFFFF" font-family="Verdana" font-size="11.4583" lengthAdjust="spacing" textLength="73.2651" x="201.3646" y="1059.4061">dtype: string</text></g><!--class required_part--><g class="entity" data-entity="required_part" data-source-line="72" data-uid="ent0010" id="entity_required_part"><rect fill="#325D88" height="145.8577" rx="4.1667" ry="4.1667" style="stroke:#2D547A;stroke-width:1.0417;" width="156.25" x="885.4167" y="110.5117"/><rect fill="#476D94" height="34.1715" rx="4.1667" ry="4.1667" style="stroke:#476D94;stroke-width:1.0417;" width="156.25" x="885.4167" y="110.5117"/><rect fill="#476D94" height="4.1667" style="stroke:#476D94;stroke-width:1.0417;" width="156.25" x="885.4167" y="140.5166"/><rect fill="none" height="145.8577" rx="4.1667" ry="4.1667" style="stroke:#2D547A;stroke-width:1.0417;" width="156.25" x="885.4167" y="110.5117"/><text fill="#FFFFFF" font-family="Verdana" font-size="11.4583" lengthAdjust="spacing" textLength="77.741" x="924.6712" y="131.5643">required_part</text><line style="stroke:#2D547A;stroke-width:1.0417;" x1="886.4583" x2="1040.625" y1="144.6833" y2="144.6833"/><ellipse cx="896.875" cy="162.2899" fill="none" rx="3.125" ry="3.125" style="stroke:#2D547A;stroke-width:1.0417;"/><text fill="#FFFFFF" font-family="Verdana" font-size="11.4583" lengthAdjust="spacing" textLength="58.9813" x="910.4167" y="164.6942">id: integer</text><line style="stroke:#2D547A;stroke-width:1.0417;" x1="886.4583" x2="1040.625" y1="176.7715" y2="176.7715"/><ellipse cx="896.875" cy="194.3781" fill="none" rx="3.125" ry="3.125" style="stroke:#2D547A;stroke-width:1.0417;"/><text fill="#FFFFFF" font-family="Verdana" font-size="11.4583" lengthAdjust="spacing" textLength="88.209" x="910.4167" y="196.7824">part_id: integer</text><ellipse cx="896.875" cy="218.133" fill="none" rx="3.125" ry="3.125" style="stroke:#2D547A;stroke-width:1.0417;"/><text fill="#FFFFFF" font-family="Verdana" font-size="11.4583" lengthAdjust="spacing" textLength="105.7546" x="910.4167" y="220.5373">service_id: integer</text><ellipse cx="896.875" cy="241.8879" fill="none" rx="3.125" ry="3.125" style="stroke:#2D547A;stroke-width:1.0417;"/><text fill="#FFFFFF" font-family="Verdana" font-size="11.4583" lengthAdjust="spacing" textLength="96.2936" x="910.4167" y="244.2921">quantity: integer</text></g><!--class service--><g class="entity" data-entity="service" data-source-line="79" data-uid="ent0011" id="entity_service"><rect fill="#325D88" height="169.6126" rx="4.1667" ry="4.1667" style="stroke:#2D547A;stroke-width:1.0417;" width="185.3104" x="669.8438" y="354.5013"/><rect fill="#476D94" height="34.1715" rx="4.1667" ry="4.1667" style="stroke:#476D94;stroke-width:1.0417;" width="185.3104" x="669.8438" y="354.5013"/><rect fill="#476D94" height="4.1667" style="stroke:#476D94;stroke-width:1.0417;" width="185.3104" x="669.8438" y="384.5062"/><rect fill="none" height="169.6126" rx="4.1667" ry="4.1667" style="stroke:#2D547A;stroke-width:1.0417;" width="185.3104" x="669.8438" y="354.5013"/><text fill="#FFFFFF" font-family="Verdana" font-size="11.4583" lengthAdjust="spacing" textLength="41.0441" x="741.9769" y="375.5539">service</text><line style="stroke:#2D547A;stroke-width:1.0417;" x1="670.8854" x2="854.1124" y1="388.6729" y2="388.6729"/><ellipse cx="681.3021" cy="406.2795" fill="none" rx="3.125" ry="3.125" style="stroke:#2D547A;stroke-width:1.0417;"/><text fill="#FFFFFF" font-family="Verdana" font-size="11.4583" lengthAdjust="spacing" textLength="58.9813" x="694.8438" y="408.6837">id: integer</text><line style="stroke:#2D547A;stroke-width:1.0417;" x1="670.8854" x2="854.1124" y1="420.7611" y2="420.7611"/><ellipse cx="681.3021" cy="438.3677" fill="none" rx="3.125" ry="3.125" style="stroke:#2D547A;stroke-width:1.0417;"/><text fill="#FFFFFF" font-family="Verdana" font-size="11.4583" lengthAdjust="spacing" textLength="119.6635" x="694.8438" y="440.772">service_name: string</text><ellipse cx="681.3021" cy="462.1226" fill="none" rx="3.125" ry="3.125" style="stroke:#2D547A;stroke-width:1.0417;"/><text fill="#FFFFFF" font-family="Verdana" font-size="11.4583" lengthAdjust="spacing" textLength="94.0277" x="694.8438" y="464.5268">description: text</text><ellipse cx="681.3021" cy="485.8774" fill="none" rx="3.125" ry="3.125" style="stroke:#2D547A;stroke-width:1.0417;"/><text fill="#FFFFFF" font-family="Verdana" font-size="11.4583" lengthAdjust="spacing" textLength="81.193" x="694.8438" y="488.2817">price: decimal</text><ellipse cx="681.3021" cy="509.6323" fill="none" rx="3.125" ry="3.125" style="stroke:#2D547A;stroke-width:1.0417;"/><text fill="#FFFFFF" font-family="Verdana" font-size="11.4583" lengthAdjust="spacing" textLength="148.852" x="694.8438" y="512.0366">duration_minutes: integer</text></g><!--class service_appointment--><g class="entity" data-entity="service_appointment" data-source-line="87" data-uid="ent0012" id="entity_service_appointment"><rect fill="#325D88" height="98.348" rx="4.1667" ry="4.1667" style="stroke:#2D547A;stroke-width:1.0417;" width="174.6521" x="668.9271" y="134.2617"/><rect fill="#476D94" height="34.1715" rx="4.1667" ry="4.1667" style="stroke:#476D94;stroke-width:1.0417;" width="174.6521" x="668.9271" y="134.2617"/><rect fill="#476D94" height="4.1667" style="stroke:#476D94;stroke-width:1.0417;" width="174.6521" x="668.9271" y="164.2666"/><rect fill="none" height="98.348" rx="4.1667" ry="4.1667" style="stroke:#2D547A;stroke-width:1.0417;" width="174.6521" x="668.9271" y="134.2617"/><text fill="#FFFFFF" font-family="Verdana" font-size="11.4583" lengthAdjust="spacing" textLength="120.2566" x="696.1249" y="155.3143">service_appointment</text><line style="stroke:#2D547A;stroke-width:1.0417;" x1="669.9688" x2="842.5375" y1="168.4333" y2="168.4333"/><ellipse cx="680.3854" cy="186.0399" fill="none" rx="3.125" ry="3.125" style="stroke:#2D547A;stroke-width:1.0417;"/><text fill="#FFFFFF" font-family="Verdana" font-size="11.4583" lengthAdjust="spacing" textLength="105.7546" x="693.9271" y="188.4442">service_id: integer</text><ellipse cx="680.3854" cy="209.7948" fill="none" rx="3.125" ry="3.125" style="stroke:#2D547A;stroke-width:1.0417;"/><text fill="#FFFFFF" font-family="Verdana" font-size="11.4583" lengthAdjust="spacing" textLength="138.1938" x="693.9271" y="212.199">appointment_id: integer</text><line style="stroke:#2D547A;stroke-width:1.0417;" x1="669.9688" x2="842.5375" y1="224.2764" y2="224.2764"/></g><!--class staff--><g class="entity" data-entity="staff" data-source-line="92" data-uid="ent0013" id="entity_staff"><rect fill="#325D88" height="145.8577" rx="4.1667" ry="4.1667" style="stroke:#2D547A;stroke-width:1.0417;" width="191.0899" x="403.4167" y="634.1263"/><rect fill="#476D94" height="34.1715" rx="4.1667" ry="4.1667" style="stroke:#476D94;stroke-width:1.0417;" width="191.0899" x="403.4167" y="634.1263"/><rect fill="#476D94" height="4.1667" style="stroke:#476D94;stroke-width:1.0417;" width="191.0899" x="403.4167" y="664.1312"/><rect fill="none" height="145.8577" rx="4.1667" ry="4.1667" style="stroke:#2D547A;stroke-width:1.0417;" width="191.0899" x="403.4167" y="634.1263"/><text fill="#FFFFFF" font-family="Verdana" font-size="11.4583" lengthAdjust="spacing" textLength="25.5519" x="486.1857" y="655.1789">staff</text><line style="stroke:#2D547A;stroke-width:1.0417;" x1="404.4583" x2="593.4649" y1="668.2979" y2="668.2979"/><ellipse cx="414.875" cy="685.9045" fill="none" rx="3.125" ry="3.125" style="stroke:#2D547A;stroke-width:1.0417;"/><text fill="#FFFFFF" font-family="Verdana" font-size="11.4583" lengthAdjust="spacing" textLength="58.9813" x="428.4167" y="688.3087">id: integer</text><line style="stroke:#2D547A;stroke-width:1.0417;" x1="404.4583" x2="593.4649" y1="700.3861" y2="700.3861"/><ellipse cx="414.875" cy="717.9927" fill="none" rx="3.125" ry="3.125" style="stroke:#2D547A;stroke-width:1.0417;"/><text fill="#FFFFFF" font-family="Verdana" font-size="11.4583" lengthAdjust="spacing" textLength="85.7808" x="428.4167" y="720.397">position: string</text><ellipse cx="414.875" cy="741.7476" fill="none" rx="3.125" ry="3.125" style="stroke:#2D547A;stroke-width:1.0417;"/><text fill="#FFFFFF" font-family="Verdana" font-size="11.4583" lengthAdjust="spacing" textLength="67.9331" x="428.4167" y="744.1518">salary: float</text><ellipse cx="414.875" cy="765.5024" fill="none" rx="3.125" ry="3.125" style="stroke:#2D547A;stroke-width:1.0417;"/><text fill="#FFFFFF" font-family="Verdana" font-size="11.4583" lengthAdjust="spacing" textLength="154.6316" x="428.4167" y="767.9067">hire_date: date_immutable</text></g><!--class vehicle--><g class="entity" data-entity="vehicle" data-source-line="99" data-uid="ent0014" id="entity_vehicle"><rect fill="#325D88" height="193.3675" rx="4.1667" ry="4.1667" style="stroke:#2D547A;stroke-width:1.0417;" width="156.25" x="631.25" y="610.3659"/><rect fill="#476D94" height="34.1715" rx="4.1667" ry="4.1667" style="stroke:#476D94;stroke-width:1.0417;" width="156.25" x="631.25" y="610.3659"/><rect fill="#476D94" height="4.1667" style="stroke:#476D94;stroke-width:1.0417;" width="156.25" x="631.25" y="640.3708"/><rect fill="none" height="193.3675" rx="4.1667" ry="4.1667" style="stroke:#2D547A;stroke-width:1.0417;" width="156.25" x="631.25" y="610.3659"/><text fill="#FFFFFF" font-family="Verdana" font-size="11.4583" lengthAdjust="spacing" textLength="40.8091" x="688.9704" y="631.4184">vehicle</text><line style="stroke:#2D547A;stroke-width:1.0417;" x1="632.2917" x2="786.4583" y1="644.5374" y2="644.5374"/><ellipse cx="642.7083" cy="662.144" fill="none" rx="3.125" ry="3.125" style="stroke:#2D547A;stroke-width:1.0417;"/><text fill="#FFFFFF" font-family="Verdana" font-size="11.4583" lengthAdjust="spacing" textLength="58.9813" x="656.25" y="664.5483">id: integer</text><line style="stroke:#2D547A;stroke-width:1.0417;" x1="632.2917" x2="786.4583" y1="676.6257" y2="676.6257"/><ellipse cx="642.7083" cy="694.2323" fill="none" rx="3.125" ry="3.125" style="stroke:#2D547A;stroke-width:1.0417;"/><text fill="#FFFFFF" font-family="Verdana" font-size="11.4583" lengthAdjust="spacing" textLength="115.1428" x="656.25" y="696.6365">license_plate: string</text><ellipse cx="642.7083" cy="717.9871" fill="none" rx="3.125" ry="3.125" style="stroke:#2D547A;stroke-width:1.0417;"/><text fill="#FFFFFF" font-family="Verdana" font-size="11.4583" lengthAdjust="spacing" textLength="72.2636" x="656.25" y="720.3914">make: string</text><ellipse cx="642.7083" cy="741.742" fill="none" rx="3.125" ry="3.125" style="stroke:#2D547A;stroke-width:1.0417;"/><text fill="#FFFFFF" font-family="Verdana" font-size="11.4583" lengthAdjust="spacing" textLength="76.0737" x="656.25" y="744.1463">model: string</text><ellipse cx="642.7083" cy="765.4969" fill="none" rx="3.125" ry="3.125" style="stroke:#2D547A;stroke-width:1.0417;"/><text fill="#FFFFFF" font-family="Verdana" font-size="11.4583" lengthAdjust="spacing" textLength="74.0875" x="656.25" y="767.9012">year: integer</text><ellipse cx="642.7083" cy="789.2518" fill="none" rx="3.125" ry="3.125" style="stroke:#2D547A;stroke-width:1.0417;"/><text fill="#FFFFFF" font-family="Verdana" font-size="11.4583" lengthAdjust="spacing" textLength="57.6218" x="656.25" y="791.6561">vin: string</text></g><!--link appointment to staff--><g class="link" data-entity-1="appointment" data-entity-2="staff" data-source-line="108" data-uid="lnk15" id="link_appointment_staff"><path codeLine="108" d="M498.9583,555.0951 C498.9583,587.2721 498.9583,595.4492 498.9583,625.5221" fill="none" id="appointment-staff" style="stroke:#325D88;stroke-width:3.125;"/><line style="stroke:#325D88;stroke-width:3.125;" x1="498.9583" x2="492.7083" y1="544.6784" y2="536.3451"/><line style="stroke:#325D88;stroke-width:3.125;" x1="498.9583" x2="505.2083" y1="544.6784" y2="536.3451"/><line style="stroke:#325D88;stroke-width:3.125;" x1="498.9583" x2="498.9583" y1="544.6784" y2="536.3451"/><ellipse cx="498.9583" cy="550.9284" fill="none" rx="4.1667" ry="4.1667" style="stroke:#325D88;stroke-width:3.125;"/><line style="stroke:#325D88;stroke-width:3.125;" x1="503.125" x2="494.7917" y1="629.6888" y2="629.6888"/><line style="stroke:#325D88;stroke-width:3.125;" x1="503.125" x2="494.7917" y1="626.5638" y2="626.5638"/><line style="stroke:#325D88;stroke-width:3.125;" x1="498.9583" x2="498.9583" y1="625.5221" y2="633.8555"/></g><!--link appointment to vehicle--><g class="link" data-entity-1="appointment" data-entity-2="vehicle" data-source-line="109" data-uid="lnk16" id="link_appointment_vehicle"><path codeLine="109" d="M652.3125,530.8555 C652.3125,530.8555 651,560.918 651,601.8555" fill="none" id="appointment-vehicle" style="stroke:#325D88;stroke-width:3.125;"/><line style="stroke:#325D88;stroke-width:3.125;" x1="641.8958" x2="633.5625" y1="530.8555" y2="537.1055"/><line style="stroke:#325D88;stroke-width:3.125;" x1="641.8958" x2="633.5625" y1="530.8555" y2="524.6055"/><line style="stroke:#325D88;stroke-width:3.125;" x1="641.8958" x2="633.5625" y1="530.8555" y2="530.8555"/><ellipse cx="648.1458" cy="530.8555" fill="none" rx="4.1667" ry="4.1667" style="stroke:#325D88;stroke-width:3.125;"/><line style="stroke:#325D88;stroke-width:3.125;" x1="655.1667" x2="646.8333" y1="606.0221" y2="606.0221"/><line style="stroke:#325D88;stroke-width:3.125;" x1="655.1667" x2="646.8333" y1="602.8971" y2="602.8971"/><line style="stroke:#325D88;stroke-width:3.125;" x1="651" x2="651" y1="601.8555" y2="610.1888"/></g><!--link appointment to customer--><g class="link" data-entity-1="appointment" data-entity-2="customer" data-source-line="110" data-uid="lnk17" id="link_appointment_customer"><path codeLine="110" d="M389.3646,555.043 C389.3646,631.9805 389.3646,707.9388 389.3646,707.9388 C389.3646,707.9388 388.3438,707.9388 375.3229,707.9388" fill="none" id="appointment-customer" style="stroke:#325D88;stroke-width:3.125;"/><line style="stroke:#325D88;stroke-width:3.125;" x1="389.3646" x2="383.1146" y1="544.6263" y2="536.293"/><line style="stroke:#325D88;stroke-width:3.125;" x1="389.3646" x2="395.6146" y1="544.6263" y2="536.293"/><line style="stroke:#325D88;stroke-width:3.125;" x1="389.3646" x2="389.3646" y1="544.6263" y2="536.293"/><ellipse cx="389.3646" cy="550.8763" fill="none" rx="4.1667" ry="4.1667" style="stroke:#325D88;stroke-width:3.125;"/><line style="stroke:#325D88;stroke-width:3.125;" x1="371.1563" x2="371.1563" y1="712.1055" y2="703.7721"/><line style="stroke:#325D88;stroke-width:3.125;" x1="374.2813" x2="374.2813" y1="712.1055" y2="703.7721"/><line style="stroke:#325D88;stroke-width:3.125;" x1="375.3229" x2="366.9896" y1="707.9388" y2="707.9388"/></g><!--link contact_info to person--><g class="link" data-entity-1="contact_info" data-entity-2="person" data-source-line="111" data-uid="lnk18" id="link_contact_info_person"><path codeLine="111" d="M189.7396,810.0221 C201.0833,810.0221 193.3958,810.0221 193.3958,810.0221 C193.3958,810.0221 193.3958,833.793 193.3958,869.6576" fill="none" id="contact_info-person" style="stroke:#325D88;stroke-width:3.125;"/><line style="stroke:#325D88;stroke-width:3.125;" x1="187.6563" x2="174.1146" y1="810.0221" y2="810.0221"/><ellipse cx="187.6563" cy="810.0221" fill="none" rx="6.25" ry="6.25" style="stroke:#325D88;stroke-width:3.125;"/><line style="stroke:#325D88;stroke-width:3.125;" x1="178.2813" x2="178.2813" y1="816.2721" y2="803.7721"/><line style="stroke:#325D88;stroke-width:3.125;" x1="197.5625" x2="189.2292" y1="873.8242" y2="873.8242"/><line style="stroke:#325D88;stroke-width:3.125;" x1="197.5625" x2="189.2292" y1="870.6992" y2="870.6992"/><line style="stroke:#325D88;stroke-width:3.125;" x1="193.3958" x2="193.3958" y1="869.6576" y2="877.9909"/></g><!--link customer to person--><g class="link" data-entity-1="customer" data-entity-2="person" data-source-line="112" data-uid="lnk19" id="link_customer_person"><path codeLine="112" d="M288.5417,775.2201 C288.5417,809.1471 288.5417,828.2096 288.5417,869.3451" fill="none" id="customer-person" style="stroke:#325D88;stroke-width:3.125;"/><line style="stroke:#325D88;stroke-width:3.125;" x1="288.5417" x2="282.2917" y1="764.8034" y2="756.4701"/><line style="stroke:#325D88;stroke-width:3.125;" x1="288.5417" x2="294.7917" y1="764.8034" y2="756.4701"/><line style="stroke:#325D88;stroke-width:3.125;" x1="288.5417" x2="288.5417" y1="764.8034" y2="756.4701"/><ellipse cx="288.5417" cy="771.0534" fill="none" rx="4.1667" ry="4.1667" style="stroke:#325D88;stroke-width:3.125;"/><line style="stroke:#325D88;stroke-width:3.125;" x1="292.7083" x2="284.375" y1="873.5117" y2="873.5117"/><line style="stroke:#325D88;stroke-width:3.125;" x1="292.7083" x2="284.375" y1="870.3867" y2="870.3867"/><line style="stroke:#325D88;stroke-width:3.125;" x1="288.5417" x2="288.5417" y1="869.3451" y2="877.6784"/></g><!--link feedback to appointment--><g class="link" data-entity-1="feedback" data-entity-2="appointment" data-source-line="113" data-uid="lnk20" id="link_feedback_appointment"><path codeLine="113" d="M388.5417,296.1576 C388.5417,316.3763 388.5417,313.7305 388.5417,333.9388" fill="none" id="feedback-appointment" style="stroke:#325D88;stroke-width:3.125;"/><line style="stroke:#325D88;stroke-width:3.125;" x1="388.5417" x2="388.5417" y1="294.0742" y2="280.5326"/><ellipse cx="388.5417" cy="294.0742" fill="none" rx="6.25" ry="6.25" style="stroke:#325D88;stroke-width:3.125;"/><line style="stroke:#325D88;stroke-width:3.125;" x1="382.2917" x2="394.7917" y1="284.6992" y2="284.6992"/><line style="stroke:#325D88;stroke-width:3.125;" x1="392.7083" x2="384.375" y1="338.1055" y2="338.1055"/><line style="stroke:#325D88;stroke-width:3.125;" x1="392.7083" x2="384.375" y1="334.9805" y2="334.9805"/><line style="stroke:#325D88;stroke-width:3.125;" x1="388.5417" x2="388.5417" y1="333.9388" y2="342.2721"/></g><!--link feedback to customer--><g class="link" data-entity-1="feedback" data-entity-2="customer" data-source-line="114" data-uid="lnk21" id="link_feedback_customer"><path codeLine="114" d="M287.625,299.1471 C287.625,410.8867 287.625,563.1055 287.625,649.3034" fill="none" id="feedback-customer" style="stroke:#325D88;stroke-width:3.125;"/><line style="stroke:#325D88;stroke-width:3.125;" x1="287.625" x2="281.375" y1="288.7305" y2="280.3971"/><line style="stroke:#325D88;stroke-width:3.125;" x1="287.625" x2="293.875" y1="288.7305" y2="280.3971"/><line style="stroke:#325D88;stroke-width:3.125;" x1="287.625" x2="287.625" y1="288.7305" y2="280.3971"/><ellipse cx="287.625" cy="294.9805" fill="none" rx="4.1667" ry="4.1667" style="stroke:#325D88;stroke-width:3.125;"/><line style="stroke:#325D88;stroke-width:3.125;" x1="291.7917" x2="283.4583" y1="653.4701" y2="653.4701"/><line style="stroke:#325D88;stroke-width:3.125;" x1="291.7917" x2="283.4583" y1="650.3451" y2="650.3451"/><line style="stroke:#325D88;stroke-width:3.125;" x1="287.625" x2="287.625" y1="649.3034" y2="657.6367"/></g><!--link invoice to appointment--><g class="link" data-entity-1="invoice" data-entity-2="appointment" data-source-line="115" data-uid="lnk22" id="link_invoice_appointment"><path codeLine="115" d="M537.5,299.2826 C537.5,319.5013 537.5,313.7305 537.5,333.9388" fill="none" id="invoice-appointment" style="stroke:#325D88;stroke-width:3.125;"/><line style="stroke:#325D88;stroke-width:3.125;" x1="537.5" x2="531.25" y1="288.8659" y2="280.5326"/><line style="stroke:#325D88;stroke-width:3.125;" x1="537.5" x2="543.75" y1="288.8659" y2="280.5326"/><line style="stroke:#325D88;stroke-width:3.125;" x1="537.5" x2="537.5" y1="288.8659" y2="280.5326"/><ellipse cx="537.5" cy="295.1159" fill="none" rx="4.1667" ry="4.1667" style="stroke:#325D88;stroke-width:3.125;"/><line style="stroke:#325D88;stroke-width:3.125;" x1="541.6667" x2="533.3333" y1="338.1055" y2="338.1055"/><line style="stroke:#325D88;stroke-width:3.125;" x1="541.6667" x2="533.3333" y1="334.9805" y2="334.9805"/><line style="stroke:#325D88;stroke-width:3.125;" x1="537.5" x2="537.5" y1="333.9388" y2="342.2721"/></g><!--link required_part to part--><g class="link" data-entity-1="required_part" data-entity-2="part" data-source-line="116" data-uid="lnk23" id="link_required_part_part"><path codeLine="116" d="M966.6354,275.5117 C966.6354,305.9284 966.6354,314.3451 966.6354,345.8971" fill="none" id="required_part-part" style="stroke:#325D88;stroke-width:3.125;"/><line style="stroke:#325D88;stroke-width:3.125;" x1="966.6354" x2="960.3854" y1="265.0951" y2="256.7617"/><line style="stroke:#325D88;stroke-width:3.125;" x1="966.6354" x2="972.8854" y1="265.0951" y2="256.7617"/><line style="stroke:#325D88;stroke-width:3.125;" x1="966.6354" x2="966.6354" y1="265.0951" y2="256.7617"/><ellipse cx="966.6354" cy="271.3451" fill="none" rx="4.1667" ry="4.1667" style="stroke:#325D88;stroke-width:3.125;"/><line style="stroke:#325D88;stroke-width:3.125;" x1="970.8021" x2="962.4688" y1="350.0638" y2="350.0638"/><line style="stroke:#325D88;stroke-width:3.125;" x1="970.8021" x2="962.4688" y1="346.9388" y2="346.9388"/><line style="stroke:#325D88;stroke-width:3.125;" x1="966.6354" x2="966.6354" y1="345.8971" y2="354.2305"/></g><!--link required_part to service--><g class="link" data-entity-1="required_part" data-entity-2="service" data-source-line="117" data-uid="lnk24" id="link_required_part_service"><path codeLine="117" d="M866.4271,245.4388 C846.5,245.4388 849.3646,245.4388 849.3646,245.4388 C849.3646,245.4388 849.3646,293.6471 849.3646,345.6576" fill="none" id="required_part-service" style="stroke:#325D88;stroke-width:3.125;"/><line style="stroke:#325D88;stroke-width:3.125;" x1="876.8438" x2="885.1771" y1="245.4388" y2="239.1888"/><line style="stroke:#325D88;stroke-width:3.125;" x1="876.8438" x2="885.1771" y1="245.4388" y2="251.6888"/><line style="stroke:#325D88;stroke-width:3.125;" x1="876.8438" x2="885.1771" y1="245.4388" y2="245.4388"/><ellipse cx="870.5938" cy="245.4388" fill="none" rx="4.1667" ry="4.1667" style="stroke:#325D88;stroke-width:3.125;"/><line style="stroke:#325D88;stroke-width:3.125;" x1="853.5313" x2="845.1979" y1="349.8242" y2="349.8242"/><line style="stroke:#325D88;stroke-width:3.125;" x1="853.5313" x2="845.1979" y1="346.6992" y2="346.6992"/><line style="stroke:#325D88;stroke-width:3.125;" x1="849.3646" x2="849.3646" y1="345.6576" y2="353.9909"/></g><!--link service_appointment to service--><g class="link" data-entity-1="service_appointment" data-entity-2="service" data-source-line="118" data-uid="lnk25" id="link_service_appointment_service"><path codeLine="118" d="M785.6667,251.8242 C785.6667,286.1263 785.6667,305.5326 785.6667,345.6992" fill="none" id="service_appointment-service" style="stroke:#325D88;stroke-width:3.125;"/><line style="stroke:#325D88;stroke-width:3.125;" x1="785.6667" x2="779.4167" y1="241.4076" y2="233.0742"/><line style="stroke:#325D88;stroke-width:3.125;" x1="785.6667" x2="791.9167" y1="241.4076" y2="233.0742"/><line style="stroke:#325D88;stroke-width:3.125;" x1="785.6667" x2="785.6667" y1="241.4076" y2="233.0742"/><ellipse cx="785.6667" cy="247.6576" fill="none" rx="4.1667" ry="4.1667" style="stroke:#325D88;stroke-width:3.125;"/><line style="stroke:#325D88;stroke-width:3.125;" x1="789.8333" x2="781.5" y1="349.8659" y2="349.8659"/><line style="stroke:#325D88;stroke-width:3.125;" x1="789.8333" x2="781.5" y1="346.7409" y2="346.7409"/><line style="stroke:#325D88;stroke-width:3.125;" x1="785.6667" x2="785.6667" y1="345.6992" y2="354.0326"/></g><!--link service_appointment to appointment--><g class="link" data-entity-1="service_appointment" data-entity-2="appointment" data-source-line="119" data-uid="lnk26" id="link_service_appointment_appointment"><path codeLine="119" d="M727.7604,251.7305 C727.7604,300.3659 727.7604,348.5638 727.7604,348.5638 C727.7604,348.5638 691.5104,348.5638 641.7083,348.5638" fill="none" id="service_appointment-appointment" style="stroke:#325D88;stroke-width:3.125;"/><line style="stroke:#325D88;stroke-width:3.125;" x1="727.7604" x2="721.5104" y1="241.3138" y2="232.9805"/><line style="stroke:#325D88;stroke-width:3.125;" x1="727.7604" x2="734.0104" y1="241.3138" y2="232.9805"/><line style="stroke:#325D88;stroke-width:3.125;" x1="727.7604" x2="727.7604" y1="241.3138" y2="232.9805"/><ellipse cx="727.7604" cy="247.5638" fill="none" rx="4.1667" ry="4.1667" style="stroke:#325D88;stroke-width:3.125;"/><line style="stroke:#325D88;stroke-width:3.125;" x1="637.5417" x2="637.5417" y1="352.7305" y2="344.3971"/><line style="stroke:#325D88;stroke-width:3.125;" x1="640.6667" x2="640.6667" y1="352.7305" y2="344.3971"/><line style="stroke:#325D88;stroke-width:3.125;" x1="641.7083" x2="633.375" y1="348.5638" y2="348.5638"/></g><!--link staff to person--><g class="link" data-entity-1="staff" data-entity-2="person" data-source-line="120" data-uid="lnk27" id="link_staff_person"><path codeLine="120" d="M384.3229,768.3555 C369.6458,768.3555 378.0208,768.3555 378.0208,768.3555 C378.0208,768.3555 378.0208,815.7409 378.0208,869.2826" fill="none" id="staff-person" style="stroke:#325D88;stroke-width:3.125;"/><line style="stroke:#325D88;stroke-width:3.125;" x1="394.7396" x2="403.0729" y1="768.3555" y2="762.1055"/><line style="stroke:#325D88;stroke-width:3.125;" x1="394.7396" x2="403.0729" y1="768.3555" y2="774.6055"/><line style="stroke:#325D88;stroke-width:3.125;" x1="394.7396" x2="403.0729" y1="768.3555" y2="768.3555"/><ellipse cx="388.4896" cy="768.3555" fill="none" rx="4.1667" ry="4.1667" style="stroke:#325D88;stroke-width:3.125;"/><line style="stroke:#325D88;stroke-width:3.125;" x1="382.1875" x2="373.8542" y1="873.4492" y2="873.4492"/><line style="stroke:#325D88;stroke-width:3.125;" x1="382.1875" x2="373.8542" y1="870.3242" y2="870.3242"/><line style="stroke:#325D88;stroke-width:3.125;" x1="378.0208" x2="378.0208" y1="869.2826" y2="877.6159"/></g><!--SRC=[bLGzZzim3DtzAzGrG81sw9ArQuik1JeQZ4N7nEd39z711Kt-Uwd47x9ZNwzB798It-CZnOOqAhGjNvH5UyGGYoQvAWgLmIA-a6iXW5K_o7qp4EDlqjoeBry_Px7lvF3NfKNrCt3Z2oOsg2oGApvnWnPL1ASZUuS5EebU5BIj9yTMJFMds2dI1oKsdZ0K-xqu8aDTbxbxfyxOa91QUAjECbiC2tU6K6fWFAZqosJblhKTmr7Asodd6UD1CRvnSHlOLTunL5oIg_qwlLQ4ycu9gNN0ADaY1tAdn4soPQOKbOZqjceRKIGBeqXcHdjYqnUupkHCxK4TlJS8RhgZVPMoO6df5819k9w5idpZFKrlZ62IIk4RLXsZBe4diGPtof3i2Nt4gX7r4QgNTNvv7pxKk4JNdIQFTCEcsqENTYFWTbz7RkJEdYhyNshzjGM01DWpc1AixrmI2IkoOD8ymEMUng8y09trj8MK-Qa_ycus1Zz5IWSs7moDiGhKSjunEHc4Oav2v1HHNZkuOwnqwZ6rwxWrXVW4B0z-uLD7aZUU2JDxJLL0M4xGx81cMHFF8nxmjQCW5_-XoxnB4SCvTMdkVQV-_iB6nkcplQTzFu1FokkkVsIMN7TVA5lOvNBphHUnDPh2TCgOLkI6M3xIObeY60WYIcqyf1eQqNkzZID0ls_N8OoGTX7BrkGxRITh_sLcUeqcioy8ORRJoMNZa8jpy_lzzVgeSYtGiriB3Pkbc2towoFuU0J5k5LlC_UupFhJMVOfjeGPjipj-SvyiWSi-RyUwQUXM9kMZn_92JocP5RaNm00]--></g></svg>