<svg xmlns="http://www.w3.org/2000/svg" xmlns:xlink="http://www.w3.org/1999/xlink" contentStyleType="text/css" data-diagram-type="CLASS" height="807px" preserveAspectRatio="none" style="width:1325px;height:807px;background:#FFFFFF;" version="1.1" viewBox="0 0 1325 807" width="1325px" zoomAndPan="magnify"><title>main</title><defs/><g><g class="title" data-source-line="5"><text fill="#000000" font-family="sans-serif" font-size="14" font-weight="bold" lengthAdjust="spacing" textLength="38.8008" x="636.3382" y="22.9951">main</text></g><!--class appointment--><g class="entity" data-entity="appointment" data-source-line="7" data-uid="ent0002" id="entity_appointment"><rect fill="#F1F1F1" height="140.0781" rx="2.5" ry="2.5" style="stroke:#181818;stroke-width:0.5;" width="309.2129" x="332.92" y="244.3769"/><text fill="#000000" font-family="sans-serif" font-size="14" lengthAdjust="spacing" textLength="89.7832" x="442.6348" y="262.372">appointment</text><line style="stroke:#181818;stroke-width:0.5;" x1="333.92" x2="641.1329" y1="270.6738" y2="270.6738"/><ellipse cx="343.92" cy="284.3222" fill="#000000" rx="3" ry="3" style="stroke:#000000;stroke-width:1;"/><text fill="#000000" font-family="sans-serif" font-size="14" lengthAdjust="spacing" textLength="72.0645" x="352.92" y="287.6689">id: integer</text><line style="stroke:#181818;stroke-width:1;" x1="333.92" x2="641.1329" y1="294.9706" y2="294.9706"/><ellipse cx="343.92" cy="308.6191" fill="#000000" rx="3" ry="3" style="stroke:#000000;stroke-width:1;"/><text fill="#000000" font-family="sans-serif" font-size="14" lengthAdjust="spacing" textLength="110.2842" x="352.92" y="311.9657">staff_id: integer</text><ellipse cx="343.92" cy="324.9159" fill="#000000" rx="3" ry="3" style="stroke:#000000;stroke-width:1;"/><text fill="#000000" font-family="sans-serif" font-size="14" lengthAdjust="spacing" textLength="128.9258" x="352.92" y="328.2626">vehicle_id: integer</text><ellipse cx="343.92" cy="341.2128" fill="#000000" rx="3" ry="3" style="stroke:#000000;stroke-width:1;"/><text fill="#000000" font-family="sans-serif" font-size="14" lengthAdjust="spacing" textLength="144.9902" x="352.92" y="344.5595">customer_id: integer</text><ellipse cx="343.92" cy="357.5097" fill="#000000" rx="3" ry="3" style="stroke:#000000;stroke-width:1;"/><text fill="#000000" font-family="sans-serif" font-size="14" lengthAdjust="spacing" textLength="283.2129" x="352.92" y="360.8564">appointment_date: datetime_immutable</text><ellipse cx="343.92" cy="373.8066" fill="#000000" rx="3" ry="3" style="stroke:#000000;stroke-width:1;"/><text fill="#000000" font-family="sans-serif" font-size="14" lengthAdjust="spacing" textLength="75.8789" x="352.92" y="377.1532">notes: text</text></g><!--class contact_info--><g class="entity" data-entity="contact_info" data-source-line="16" data-uid="ent0003" id="entity_contact_info"><rect fill="#F1F1F1" height="156.375" rx="2.5" ry="2.5" style="stroke:#181818;stroke-width:0.5;" width="153.0527" x="7" y="444.4569"/><text fill="#000000" font-family="sans-serif" font-size="14" lengthAdjust="spacing" textLength="85.6475" x="40.7026" y="462.452">contact_info</text><line style="stroke:#181818;stroke-width:0.5;" x1="8" x2="159.0527" y1="470.7538" y2="470.7538"/><ellipse cx="18" cy="484.4022" fill="#000000" rx="3" ry="3" style="stroke:#000000;stroke-width:1;"/><text fill="#000000" font-family="sans-serif" font-size="14" lengthAdjust="spacing" textLength="72.0645" x="27" y="487.7489">id: integer</text><line style="stroke:#181818;stroke-width:1;" x1="8" x2="159.0527" y1="495.0506" y2="495.0506"/><ellipse cx="18" cy="508.6991" fill="#000000" rx="3" ry="3" style="stroke:#000000;stroke-width:1;"/><text fill="#000000" font-family="sans-serif" font-size="14" lengthAdjust="spacing" textLength="127.0527" x="27" y="512.0457">person_id: integer</text><ellipse cx="18" cy="524.9959" fill="#000000" rx="3" ry="3" style="stroke:#000000;stroke-width:1;"/><text fill="#000000" font-family="sans-serif" font-size="14" lengthAdjust="spacing" textLength="104.665" x="27" y="528.3426">address: string</text><ellipse cx="18" cy="541.2928" fill="#000000" rx="3" ry="3" style="stroke:#000000;stroke-width:1;"/><text fill="#000000" font-family="sans-serif" font-size="14" lengthAdjust="spacing" textLength="74.7168" x="27" y="544.6395">city: string</text><ellipse cx="18" cy="557.5897" fill="#000000" rx="3" ry="3" style="stroke:#000000;stroke-width:1;"/><text fill="#000000" font-family="sans-serif" font-size="14" lengthAdjust="spacing" textLength="84.8203" x="27" y="560.9364">state: string</text><text fill="#000000" font-family="sans-serif" font-size="14" lengthAdjust="spacing" textLength="93.167" x="27" y="577.2332">phone: string</text><ellipse cx="18" cy="590.1834" fill="#000000" rx="3" ry="3" style="stroke:#000000;stroke-width:1;"/><text fill="#000000" font-family="sans-serif" font-size="14" lengthAdjust="spacing" textLength="87.9648" x="27" y="593.5301">email: string</text></g><!--class customer--><g class="entity" data-entity="customer" data-source-line="26" data-uid="ent0004" id="entity_customer"><rect fill="#F1F1F1" height="74.8906" rx="2.5" ry="2.5" style="stroke:#181818;stroke-width:0.5;" width="150" x="195.53" y="485.1969"/><text fill="#000000" font-family="sans-serif" font-size="14" lengthAdjust="spacing" textLength="65.9258" x="237.5671" y="503.192">customer</text><line style="stroke:#181818;stroke-width:0.5;" x1="196.53" x2="344.53" y1="511.4938" y2="511.4938"/><ellipse cx="206.53" cy="525.1422" fill="#000000" rx="3" ry="3" style="stroke:#000000;stroke-width:1;"/><text fill="#000000" font-family="sans-serif" font-size="14" lengthAdjust="spacing" textLength="72.0645" x="215.53" y="528.4889">id: integer</text><line style="stroke:#181818;stroke-width:1;" x1="196.53" x2="344.53" y1="535.7906" y2="535.7906"/><ellipse cx="206.53" cy="549.4391" fill="#000000" rx="3" ry="3" style="stroke:#000000;stroke-width:1;"/><text fill="#000000" font-family="sans-serif" font-size="14" lengthAdjust="spacing" textLength="86.2012" x="215.53" y="552.7857">vip: boolean</text></g><!--class doctrine_migration_versions--><g class="entity" data-entity="doctrine_migration_versions" data-source-line="31" data-uid="ent0005" id="entity_doctrine_migration_versions"><rect fill="#F1F1F1" height="91.1875" rx="2.5" ry="2.5" style="stroke:#181818;stroke-width:0.5;" width="203.9072" x="1114.57" y="68.7469"/><text fill="#000000" font-family="sans-serif" font-size="14" lengthAdjust="spacing" textLength="197.9072" x="1117.57" y="86.742">doctrine_migration_versions</text><line style="stroke:#181818;stroke-width:0.5;" x1="1115.57" x2="1317.4772" y1="95.0438" y2="95.0438"/><ellipse cx="1125.57" cy="108.6922" fill="#000000" rx="3" ry="3" style="stroke:#000000;stroke-width:1;"/><text fill="#000000" font-family="sans-serif" font-size="14" lengthAdjust="spacing" textLength="100.6318" x="1134.57" y="112.0389">version: string</text><line style="stroke:#181818;stroke-width:1;" x1="1115.57" x2="1317.4772" y1="119.3406" y2="119.3406"/><text fill="#000000" font-family="sans-serif" font-size="14" lengthAdjust="spacing" textLength="158.5049" x="1120.57" y="136.3357">executed_at: datetime</text><text fill="#000000" font-family="sans-serif" font-size="14" lengthAdjust="spacing" textLength="166.8174" x="1120.57" y="152.6326">execution_time: integer</text></g><!--class feedback--><g class="entity" data-entity="feedback" data-source-line="37" data-uid="ent0006" id="entity_feedback"><rect fill="#F1F1F1" height="140.0781" rx="2.5" ry="2.5" style="stroke:#181818;stroke-width:0.5;" width="283.7422" x="128.66" y="44.2969"/><text fill="#000000" font-family="sans-serif" font-size="14" lengthAdjust="spacing" textLength="64.3125" x="238.3748" y="62.292">feedback</text><line style="stroke:#181818;stroke-width:0.5;" x1="129.66" x2="411.4022" y1="70.5938" y2="70.5938"/><ellipse cx="139.66" cy="84.2422" fill="#000000" rx="3" ry="3" style="stroke:#000000;stroke-width:1;"/><text fill="#000000" font-family="sans-serif" font-size="14" lengthAdjust="spacing" textLength="72.0645" x="148.66" y="87.5889">id: integer</text><line style="stroke:#181818;stroke-width:1;" x1="129.66" x2="411.4022" y1="94.8906" y2="94.8906"/><ellipse cx="139.66" cy="108.5391" fill="#000000" rx="3" ry="3" style="stroke:#000000;stroke-width:1;"/><text fill="#000000" font-family="sans-serif" font-size="14" lengthAdjust="spacing" textLength="168.8477" x="148.66" y="111.8857">appointment_id: integer</text><ellipse cx="139.66" cy="124.8359" fill="#000000" rx="3" ry="3" style="stroke:#000000;stroke-width:1;"/><text fill="#000000" font-family="sans-serif" font-size="14" lengthAdjust="spacing" textLength="144.9902" x="148.66" y="128.1826">customer_id: integer</text><ellipse cx="139.66" cy="141.1328" fill="#000000" rx="3" ry="3" style="stroke:#000000;stroke-width:1;"/><text fill="#000000" font-family="sans-serif" font-size="14" lengthAdjust="spacing" textLength="100.7617" x="148.66" y="144.4795">rating: integer</text><text fill="#000000" font-family="sans-serif" font-size="14" lengthAdjust="spacing" textLength="110.8516" x="148.66" y="160.7764">comments: text</text><ellipse cx="139.66" cy="173.7266" fill="#000000" rx="3" ry="3" style="stroke:#000000;stroke-width:1;"/><text fill="#000000" font-family="sans-serif" font-size="14" lengthAdjust="spacing" textLength="257.7422" x="148.66" y="177.0732">feedback_date: datetime_immutable</text></g><!--class invoice--><g class="entity" data-entity="invoice" data-source-line="46" data-uid="ent0007" id="entity_invoice"><rect fill="#F1F1F1" height="140.0781" rx="2.5" ry="2.5" style="stroke:#181818;stroke-width:0.5;" width="198.7852" x="447.13" y="44.2969"/><text fill="#000000" font-family="sans-serif" font-size="14" lengthAdjust="spacing" textLength="49.8135" x="521.6158" y="62.292">invoice</text><line style="stroke:#181818;stroke-width:0.5;" x1="448.13" x2="644.9152" y1="70.5938" y2="70.5938"/><ellipse cx="458.13" cy="84.2422" fill="#000000" rx="3" ry="3" style="stroke:#000000;stroke-width:1;"/><text fill="#000000" font-family="sans-serif" font-size="14" lengthAdjust="spacing" textLength="72.0645" x="467.13" y="87.5889">id: integer</text><line style="stroke:#181818;stroke-width:1;" x1="448.13" x2="644.9152" y1="94.8906" y2="94.8906"/><ellipse cx="458.13" cy="108.5391" fill="#000000" rx="3" ry="3" style="stroke:#000000;stroke-width:1;"/><text fill="#000000" font-family="sans-serif" font-size="14" lengthAdjust="spacing" textLength="168.8477" x="467.13" y="111.8857">appointment_id: integer</text><ellipse cx="458.13" cy="124.8359" fill="#000000" rx="3" ry="3" style="stroke:#000000;stroke-width:1;"/><text fill="#000000" font-family="sans-serif" font-size="14" lengthAdjust="spacing" textLength="160.7471" x="467.13" y="128.1826">invoice_date: datetime</text><ellipse cx="458.13" cy="141.1328" fill="#000000" rx="3" ry="3" style="stroke:#000000;stroke-width:1;"/><text fill="#000000" font-family="sans-serif" font-size="14" lengthAdjust="spacing" textLength="157.3906" x="467.13" y="144.4795">total_amount: decimal</text><ellipse cx="458.13" cy="157.4297" fill="#000000" rx="3" ry="3" style="stroke:#000000;stroke-width:1;"/><text fill="#000000" font-family="sans-serif" font-size="14" lengthAdjust="spacing" textLength="172.7852" x="467.13" y="160.7764">payment_method: string</text><ellipse cx="458.13" cy="173.7266" fill="#000000" rx="3" ry="3" style="stroke:#000000;stroke-width:1;"/><text fill="#000000" font-family="sans-serif" font-size="14" lengthAdjust="spacing" textLength="95.3818" x="467.13" y="177.0732">paid: boolean</text></g><!--class part--><g class="entity" data-entity="part" data-source-line="55" data-uid="ent0008" id="entity_part"><rect fill="#F1F1F1" height="123.7813" rx="2.5" ry="2.5" style="stroke:#181818;stroke-width:0.5;" width="187.8066" x="920.62" y="252.5269"/><text fill="#000000" font-family="sans-serif" font-size="14" lengthAdjust="spacing" textLength="28.7109" x="1000.1679" y="270.522">part</text><line style="stroke:#181818;stroke-width:0.5;" x1="921.62" x2="1107.4266" y1="278.8238" y2="278.8238"/><ellipse cx="931.62" cy="292.4722" fill="#000000" rx="3" ry="3" style="stroke:#000000;stroke-width:1;"/><text fill="#000000" font-family="sans-serif" font-size="14" lengthAdjust="spacing" textLength="72.0645" x="940.62" y="295.8189">id: integer</text><line style="stroke:#181818;stroke-width:1;" x1="921.62" x2="1107.4266" y1="303.1206" y2="303.1206"/><ellipse cx="931.62" cy="316.7691" fill="#000000" rx="3" ry="3" style="stroke:#000000;stroke-width:1;"/><text fill="#000000" font-family="sans-serif" font-size="14" lengthAdjust="spacing" textLength="124.7695" x="940.62" y="320.1157">part_name: string</text><ellipse cx="931.62" cy="333.0659" fill="#000000" rx="3" ry="3" style="stroke:#000000;stroke-width:1;"/><text fill="#000000" font-family="sans-serif" font-size="14" lengthAdjust="spacing" textLength="127.1963" x="940.62" y="336.4126">description: string</text><ellipse cx="931.62" cy="349.3628" fill="#000000" rx="3" ry="3" style="stroke:#000000;stroke-width:1;"/><text fill="#000000" font-family="sans-serif" font-size="14" lengthAdjust="spacing" textLength="99.2031" x="940.62" y="352.7095">price: decimal</text><ellipse cx="931.62" cy="365.6597" fill="#000000" rx="3" ry="3" style="stroke:#000000;stroke-width:1;"/><text fill="#000000" font-family="sans-serif" font-size="14" lengthAdjust="spacing" textLength="161.8066" x="940.62" y="369.0064">stock_quantity: integer</text></g><!--class person--><g class="entity" data-entity="person" data-source-line="63" data-uid="ent0009" id="entity_person"><rect fill="#F1F1F1" height="140.0781" rx="2.5" ry="2.5" style="stroke:#181818;stroke-width:0.5;" width="255.5645" x="142.74" y="660.8269"/><text fill="#000000" font-family="sans-serif" font-size="14" lengthAdjust="spacing" textLength="47.9883" x="246.5281" y="678.822">person</text><line style="stroke:#181818;stroke-width:0.5;" x1="143.74" x2="397.3045" y1="687.1238" y2="687.1238"/><ellipse cx="153.74" cy="700.7722" fill="#000000" rx="3" ry="3" style="stroke:#000000;stroke-width:1;"/><text fill="#000000" font-family="sans-serif" font-size="14" lengthAdjust="spacing" textLength="72.0645" x="162.74" y="704.1189">id: integer</text><line style="stroke:#181818;stroke-width:1;" x1="143.74" x2="397.3045" y1="711.4206" y2="711.4206"/><ellipse cx="153.74" cy="725.0691" fill="#000000" rx="3" ry="3" style="stroke:#000000;stroke-width:1;"/><text fill="#000000" font-family="sans-serif" font-size="14" lengthAdjust="spacing" textLength="123.416" x="162.74" y="728.4157">first_name: string</text><ellipse cx="153.74" cy="741.3659" fill="#000000" rx="3" ry="3" style="stroke:#000000;stroke-width:1;"/><text fill="#000000" font-family="sans-serif" font-size="14" lengthAdjust="spacing" textLength="121.3105" x="162.74" y="744.7126">last_name: string</text><text fill="#000000" font-family="sans-serif" font-size="14" lengthAdjust="spacing" textLength="194.6943" x="162.74" y="761.0095">birth_date: date_immutable</text><ellipse cx="153.74" cy="773.9597" fill="#000000" rx="3" ry="3" style="stroke:#000000;stroke-width:1;"/><text fill="#000000" font-family="sans-serif" font-size="14" lengthAdjust="spacing" textLength="229.5645" x="162.74" y="777.3064">created_at: datetime_immutable</text><ellipse cx="153.74" cy="790.2566" fill="#000000" rx="3" ry="3" style="stroke:#000000;stroke-width:1;"/><text fill="#000000" font-family="sans-serif" font-size="14" lengthAdjust="spacing" textLength="89.5166" x="162.74" y="793.6032">dtype: string</text></g><!--class required_part--><g class="entity" data-entity="required_part" data-source-line="72" data-uid="ent0010" id="entity_required_part"><rect fill="#F1F1F1" height="107.4844" rx="2.5" ry="2.5" style="stroke:#181818;stroke-width:0.5;" width="155.2129" x="923.92" y="60.5969"/><text fill="#000000" font-family="sans-serif" font-size="14" lengthAdjust="spacing" textLength="94.9854" x="954.0338" y="78.592">required_part</text><line style="stroke:#181818;stroke-width:0.5;" x1="924.92" x2="1078.1329" y1="86.8938" y2="86.8938"/><ellipse cx="934.92" cy="100.5422" fill="#000000" rx="3" ry="3" style="stroke:#000000;stroke-width:1;"/><text fill="#000000" font-family="sans-serif" font-size="14" lengthAdjust="spacing" textLength="72.0645" x="943.92" y="103.8889">id: integer</text><line style="stroke:#181818;stroke-width:1;" x1="924.92" x2="1078.1329" y1="111.1906" y2="111.1906"/><ellipse cx="934.92" cy="124.8391" fill="#000000" rx="3" ry="3" style="stroke:#000000;stroke-width:1;"/><text fill="#000000" font-family="sans-serif" font-size="14" lengthAdjust="spacing" textLength="107.7754" x="943.92" y="128.1857">part_id: integer</text><ellipse cx="934.92" cy="141.1359" fill="#000000" rx="3" ry="3" style="stroke:#000000;stroke-width:1;"/><text fill="#000000" font-family="sans-serif" font-size="14" lengthAdjust="spacing" textLength="129.2129" x="943.92" y="144.4826">service_id: integer</text><ellipse cx="934.92" cy="157.4328" fill="#000000" rx="3" ry="3" style="stroke:#000000;stroke-width:1;"/><text fill="#000000" font-family="sans-serif" font-size="14" lengthAdjust="spacing" textLength="117.6533" x="943.92" y="160.7795">quantity: integer</text></g><!--class service--><g class="entity" data-entity="service" data-source-line="79" data-uid="ent0011" id="entity_service"><rect fill="#F1F1F1" height="123.7813" rx="2.5" ry="2.5" style="stroke:#181818;stroke-width:0.5;" width="207.8701" x="677.59" y="252.5269"/><text fill="#000000" font-family="sans-serif" font-size="14" lengthAdjust="spacing" textLength="50.1484" x="756.4508" y="270.522">service</text><line style="stroke:#181818;stroke-width:0.5;" x1="678.59" x2="884.4601" y1="278.8238" y2="278.8238"/><ellipse cx="688.59" cy="292.4722" fill="#000000" rx="3" ry="3" style="stroke:#000000;stroke-width:1;"/><text fill="#000000" font-family="sans-serif" font-size="14" lengthAdjust="spacing" textLength="72.0645" x="697.59" y="295.8189">id: integer</text><line style="stroke:#181818;stroke-width:1;" x1="678.59" x2="884.4601" y1="303.1206" y2="303.1206"/><ellipse cx="688.59" cy="316.7691" fill="#000000" rx="3" ry="3" style="stroke:#000000;stroke-width:1;"/><text fill="#000000" font-family="sans-serif" font-size="14" lengthAdjust="spacing" textLength="146.207" x="697.59" y="320.1157">service_name: string</text><ellipse cx="688.59" cy="333.0659" fill="#000000" rx="3" ry="3" style="stroke:#000000;stroke-width:1;"/><text fill="#000000" font-family="sans-serif" font-size="14" lengthAdjust="spacing" textLength="114.8848" x="697.59" y="336.4126">description: text</text><ellipse cx="688.59" cy="349.3628" fill="#000000" rx="3" ry="3" style="stroke:#000000;stroke-width:1;"/><text fill="#000000" font-family="sans-serif" font-size="14" lengthAdjust="spacing" textLength="99.2031" x="697.59" y="352.7095">price: decimal</text><ellipse cx="688.59" cy="365.6597" fill="#000000" rx="3" ry="3" style="stroke:#000000;stroke-width:1;"/><text fill="#000000" font-family="sans-serif" font-size="14" lengthAdjust="spacing" textLength="181.8701" x="697.59" y="369.0064">duration_minutes: integer</text></g><!--class service_appointment--><g class="entity" data-entity="service_appointment" data-source-line="87" data-uid="ent0012" id="entity_service_appointment"><rect fill="#F1F1F1" height="74.8906" rx="2.5" ry="2.5" style="stroke:#181818;stroke-width:0.5;" width="194.8477" x="683.1" y="76.8869"/><text fill="#000000" font-family="sans-serif" font-size="14" lengthAdjust="spacing" textLength="146.9316" x="707.058" y="94.882">service_appointment</text><line style="stroke:#181818;stroke-width:0.5;" x1="684.1" x2="876.9477" y1="103.1838" y2="103.1838"/><ellipse cx="694.1" cy="116.8322" fill="#000000" rx="3" ry="3" style="stroke:#000000;stroke-width:1;"/><text fill="#000000" font-family="sans-serif" font-size="14" lengthAdjust="spacing" textLength="129.2129" x="703.1" y="120.1789">service_id: integer</text><ellipse cx="694.1" cy="133.1291" fill="#000000" rx="3" ry="3" style="stroke:#000000;stroke-width:1;"/><text fill="#000000" font-family="sans-serif" font-size="14" lengthAdjust="spacing" textLength="168.8477" x="703.1" y="136.4757">appointment_id: integer</text><line style="stroke:#181818;stroke-width:1;" x1="684.1" x2="876.9477" y1="143.7775" y2="143.7775"/></g><!--class staff--><g class="entity" data-entity="staff" data-source-line="92" data-uid="ent0013" id="entity_staff"><rect fill="#F1F1F1" height="107.4844" rx="2.5" ry="2.5" style="stroke:#181818;stroke-width:0.5;" width="214.9316" x="380.06" y="468.8969"/><text fill="#000000" font-family="sans-serif" font-size="14" lengthAdjust="spacing" textLength="31.2197" x="471.916" y="486.892">staff</text><line style="stroke:#181818;stroke-width:0.5;" x1="381.06" x2="593.9916" y1="495.1938" y2="495.1938"/><ellipse cx="391.06" cy="508.8422" fill="#000000" rx="3" ry="3" style="stroke:#000000;stroke-width:1;"/><text fill="#000000" font-family="sans-serif" font-size="14" lengthAdjust="spacing" textLength="72.0645" x="400.06" y="512.1889">id: integer</text><line style="stroke:#181818;stroke-width:1;" x1="381.06" x2="593.9916" y1="519.4906" y2="519.4906"/><ellipse cx="391.06" cy="533.1391" fill="#000000" rx="3" ry="3" style="stroke:#000000;stroke-width:1;"/><text fill="#000000" font-family="sans-serif" font-size="14" lengthAdjust="spacing" textLength="104.8086" x="400.06" y="536.4857">position: string</text><ellipse cx="391.06" cy="549.4359" fill="#000000" rx="3" ry="3" style="stroke:#000000;stroke-width:1;"/><text fill="#000000" font-family="sans-serif" font-size="14" lengthAdjust="spacing" textLength="83.002" x="400.06" y="552.7826">salary: float</text><ellipse cx="391.06" cy="565.7328" fill="#000000" rx="3" ry="3" style="stroke:#000000;stroke-width:1;"/><text fill="#000000" font-family="sans-serif" font-size="14" lengthAdjust="spacing" textLength="188.9316" x="400.06" y="569.0795">hire_date: date_immutable</text></g><!--class vehicle--><g class="entity" data-entity="vehicle" data-source-line="99" data-uid="ent0014" id="entity_vehicle"><rect fill="#F1F1F1" height="140.0781" rx="2.5" ry="2.5" style="stroke:#181818;stroke-width:0.5;" width="166.6836" x="630.18" y="452.6069"/><text fill="#000000" font-family="sans-serif" font-size="14" lengthAdjust="spacing" textLength="49.8613" x="688.5911" y="470.602">vehicle</text><line style="stroke:#181818;stroke-width:0.5;" x1="631.18" x2="795.8636" y1="478.9038" y2="478.9038"/><ellipse cx="641.18" cy="492.5522" fill="#000000" rx="3" ry="3" style="stroke:#000000;stroke-width:1;"/><text fill="#000000" font-family="sans-serif" font-size="14" lengthAdjust="spacing" textLength="72.0645" x="650.18" y="495.8989">id: integer</text><line style="stroke:#181818;stroke-width:1;" x1="631.18" x2="795.8636" y1="503.2006" y2="503.2006"/><ellipse cx="641.18" cy="516.8491" fill="#000000" rx="3" ry="3" style="stroke:#000000;stroke-width:1;"/><text fill="#000000" font-family="sans-serif" font-size="14" lengthAdjust="spacing" textLength="140.6836" x="650.18" y="520.1957">license_plate: string</text><ellipse cx="641.18" cy="533.1459" fill="#000000" rx="3" ry="3" style="stroke:#000000;stroke-width:1;"/><text fill="#000000" font-family="sans-serif" font-size="14" lengthAdjust="spacing" textLength="88.293" x="650.18" y="536.4926">make: string</text><ellipse cx="641.18" cy="549.4428" fill="#000000" rx="3" ry="3" style="stroke:#000000;stroke-width:1;"/><text fill="#000000" font-family="sans-serif" font-size="14" lengthAdjust="spacing" textLength="92.9482" x="650.18" y="552.7895">model: string</text><ellipse cx="641.18" cy="565.7397" fill="#000000" rx="3" ry="3" style="stroke:#000000;stroke-width:1;"/><text fill="#000000" font-family="sans-serif" font-size="14" lengthAdjust="spacing" textLength="90.5215" x="650.18" y="569.0864">year: integer</text><ellipse cx="641.18" cy="582.0366" fill="#000000" rx="3" ry="3" style="stroke:#000000;stroke-width:1;"/><text fill="#000000" font-family="sans-serif" font-size="14" lengthAdjust="spacing" textLength="70.4033" x="650.18" y="585.3832">vin: string</text></g><!--link appointment to staff--><g class="link" data-entity-1="appointment" data-entity-2="staff" data-source-line="108" data-uid="lnk15" id="link_appointment_staff"><path codeLine="108" d="M487.53,402.9069 C487.53,430.2869 487.53,435.1269 487.53,460.6769" fill="none" id="appointment-staff" style="stroke:#181818;stroke-width:1;"/><line style="stroke:#181818;stroke-width:1;" x1="487.53" x2="481.53" y1="392.9069" y2="384.9069"/><line style="stroke:#181818;stroke-width:1;" x1="487.53" x2="493.53" y1="392.9069" y2="384.9069"/><line style="stroke:#181818;stroke-width:1;" x1="487.53" x2="487.53" y1="392.9069" y2="384.9069"/><ellipse cx="487.53" cy="398.9069" fill="none" rx="4" ry="4" style="stroke:#181818;stroke-width:1;"/><line style="stroke:#181818;stroke-width:1;" x1="491.53" x2="483.53" y1="464.6769" y2="464.6769"/><line style="stroke:#181818;stroke-width:1;" x1="491.53" x2="483.53" y1="461.6769" y2="461.6769"/><line style="stroke:#181818;stroke-width:1;" x1="487.53" x2="487.53" y1="460.6769" y2="468.6769"/></g><!--link appointment to vehicle--><g class="link" data-entity-1="appointment" data-entity-2="vehicle" data-source-line="109" data-uid="lnk16" id="link_appointment_vehicle"><path codeLine="109" d="M636.16,402.9069 C636.16,424.6169 636.16,422.5169 636.16,444.2169" fill="none" id="appointment-vehicle" style="stroke:#181818;stroke-width:1;"/><line style="stroke:#181818;stroke-width:1;" x1="636.16" x2="630.16" y1="392.9069" y2="384.9069"/><line style="stroke:#181818;stroke-width:1;" x1="636.16" x2="642.16" y1="392.9069" y2="384.9069"/><line style="stroke:#181818;stroke-width:1;" x1="636.16" x2="636.16" y1="392.9069" y2="384.9069"/><ellipse cx="636.16" cy="398.9069" fill="none" rx="4" ry="4" style="stroke:#181818;stroke-width:1;"/><line style="stroke:#181818;stroke-width:1;" x1="640.16" x2="632.16" y1="448.2169" y2="448.2169"/><line style="stroke:#181818;stroke-width:1;" x1="640.16" x2="632.16" y1="445.2169" y2="445.2169"/><line style="stroke:#181818;stroke-width:1;" x1="636.16" x2="636.16" y1="444.2169" y2="452.2169"/></g><!--link appointment to customer--><g class="link" data-entity-1="appointment" data-entity-2="customer" data-source-line="110" data-uid="lnk17" id="link_appointment_customer"><path codeLine="110" d="M339.22,402.9069 C339.22,436.4169 339.22,449.1269 339.22,476.9669" fill="none" id="appointment-customer" style="stroke:#181818;stroke-width:1;"/><line style="stroke:#181818;stroke-width:1;" x1="339.22" x2="333.22" y1="392.9069" y2="384.9069"/><line style="stroke:#181818;stroke-width:1;" x1="339.22" x2="345.22" y1="392.9069" y2="384.9069"/><line style="stroke:#181818;stroke-width:1;" x1="339.22" x2="339.22" y1="392.9069" y2="384.9069"/><ellipse cx="339.22" cy="398.9069" fill="none" rx="4" ry="4" style="stroke:#181818;stroke-width:1;"/><line style="stroke:#181818;stroke-width:1;" x1="343.22" x2="335.22" y1="480.9669" y2="480.9669"/><line style="stroke:#181818;stroke-width:1;" x1="343.22" x2="335.22" y1="477.9669" y2="477.9669"/><line style="stroke:#181818;stroke-width:1;" x1="339.22" x2="339.22" y1="476.9669" y2="484.9669"/></g><!--link contact_info to person--><g class="link" data-entity-1="contact_info" data-entity-2="person" data-source-line="111" data-uid="lnk18" id="link_contact_info_person"><path codeLine="111" d="M151.4,616.0669 C151.4,635.5469 151.4,633.3169 151.4,652.3869" fill="none" id="contact_info-person" style="stroke:#181818;stroke-width:1;"/><line style="stroke:#181818;stroke-width:1;" x1="151.4" x2="151.4" y1="612.0669" y2="601.0669"/><ellipse cx="151.4" cy="612.0669" fill="none" rx="4" ry="4" style="stroke:#181818;stroke-width:1;"/><line style="stroke:#181818;stroke-width:1;" x1="147.4" x2="155.4" y1="605.0669" y2="605.0669"/><line style="stroke:#181818;stroke-width:1;" x1="155.4" x2="147.4" y1="656.3869" y2="656.3869"/><line style="stroke:#181818;stroke-width:1;" x1="155.4" x2="147.4" y1="653.3869" y2="653.3869"/><line style="stroke:#181818;stroke-width:1;" x1="151.4" x2="151.4" y1="652.3869" y2="660.3869"/></g><!--link customer to person--><g class="link" data-entity-1="customer" data-entity-2="person" data-source-line="112" data-uid="lnk19" id="link_customer_person"><path codeLine="112" d="M270.53,578.3469 C270.53,606.2469 270.53,619.0469 270.53,652.5969" fill="none" id="customer-person" style="stroke:#181818;stroke-width:1;"/><line style="stroke:#181818;stroke-width:1;" x1="270.53" x2="264.53" y1="568.3469" y2="560.3469"/><line style="stroke:#181818;stroke-width:1;" x1="270.53" x2="276.53" y1="568.3469" y2="560.3469"/><line style="stroke:#181818;stroke-width:1;" x1="270.53" x2="270.53" y1="568.3469" y2="560.3469"/><ellipse cx="270.53" cy="574.3469" fill="none" rx="4" ry="4" style="stroke:#181818;stroke-width:1;"/><line style="stroke:#181818;stroke-width:1;" x1="274.53" x2="266.53" y1="656.5969" y2="656.5969"/><line style="stroke:#181818;stroke-width:1;" x1="274.53" x2="266.53" y1="653.5969" y2="653.5969"/><line style="stroke:#181818;stroke-width:1;" x1="270.53" x2="270.53" y1="652.5969" y2="660.5969"/></g><!--link feedback to appointment--><g class="link" data-entity-1="feedback" data-entity-2="appointment" data-source-line="113" data-uid="lnk20" id="link_feedback_appointment"><path codeLine="113" d="M372.66,199.5969 C372.66,218.8469 372.66,216.7269 372.66,235.9869" fill="none" id="feedback-appointment" style="stroke:#181818;stroke-width:1;"/><line style="stroke:#181818;stroke-width:1;" x1="372.66" x2="372.66" y1="195.5969" y2="184.5969"/><ellipse cx="372.66" cy="195.5969" fill="none" rx="4" ry="4" style="stroke:#181818;stroke-width:1;"/><line style="stroke:#181818;stroke-width:1;" x1="368.66" x2="376.66" y1="188.5969" y2="188.5969"/><line style="stroke:#181818;stroke-width:1;" x1="376.66" x2="368.66" y1="239.9869" y2="239.9869"/><line style="stroke:#181818;stroke-width:1;" x1="376.66" x2="368.66" y1="236.9869" y2="236.9869"/><line style="stroke:#181818;stroke-width:1;" x1="372.66" x2="372.66" y1="235.9869" y2="243.9869"/></g><!--link feedback to customer--><g class="link" data-entity-1="feedback" data-entity-2="customer" data-source-line="114" data-uid="lnk21" id="link_feedback_customer"><path codeLine="114" d="M264.22,202.5269 C264.22,289.5069 264.22,408.5869 264.22,476.8969" fill="none" id="feedback-customer" style="stroke:#181818;stroke-width:1;"/><line style="stroke:#181818;stroke-width:1;" x1="264.22" x2="258.22" y1="192.5269" y2="184.5269"/><line style="stroke:#181818;stroke-width:1;" x1="264.22" x2="270.22" y1="192.5269" y2="184.5269"/><line style="stroke:#181818;stroke-width:1;" x1="264.22" x2="264.22" y1="192.5269" y2="184.5269"/><ellipse cx="264.22" cy="198.5269" fill="none" rx="4" ry="4" style="stroke:#181818;stroke-width:1;"/><line style="stroke:#181818;stroke-width:1;" x1="268.22" x2="260.22" y1="480.8969" y2="480.8969"/><line style="stroke:#181818;stroke-width:1;" x1="268.22" x2="260.22" y1="477.8969" y2="477.8969"/><line style="stroke:#181818;stroke-width:1;" x1="264.22" x2="264.22" y1="476.8969" y2="484.8969"/></g><!--link invoice to appointment--><g class="link" data-entity-1="invoice" data-entity-2="appointment" data-source-line="115" data-uid="lnk22" id="link_invoice_appointment"><path codeLine="115" d="M544.63,202.5969 C544.63,221.8469 544.63,216.7269 544.63,235.9869" fill="none" id="invoice-appointment" style="stroke:#181818;stroke-width:1;"/><line style="stroke:#181818;stroke-width:1;" x1="544.63" x2="538.63" y1="192.5969" y2="184.5969"/><line style="stroke:#181818;stroke-width:1;" x1="544.63" x2="550.63" y1="192.5969" y2="184.5969"/><line style="stroke:#181818;stroke-width:1;" x1="544.63" x2="544.63" y1="192.5969" y2="184.5969"/><ellipse cx="544.63" cy="198.5969" fill="none" rx="4" ry="4" style="stroke:#181818;stroke-width:1;"/><line style="stroke:#181818;stroke-width:1;" x1="548.63" x2="540.63" y1="239.9869" y2="239.9869"/><line style="stroke:#181818;stroke-width:1;" x1="548.63" x2="540.63" y1="236.9869" y2="236.9869"/><line style="stroke:#181818;stroke-width:1;" x1="544.63" x2="544.63" y1="235.9869" y2="243.9869"/></g><!--link required_part to part--><g class="link" data-entity-1="required_part" data-entity-2="part" data-source-line="116" data-uid="lnk23" id="link_required_part_part"><path codeLine="116" d="M1001.53,186.4769 C1001.53,212.2869 1001.53,217.2969 1001.53,244.0869" fill="none" id="required_part-part" style="stroke:#181818;stroke-width:1;"/><line style="stroke:#181818;stroke-width:1;" x1="1001.53" x2="995.53" y1="176.4769" y2="168.4769"/><line style="stroke:#181818;stroke-width:1;" x1="1001.53" x2="1007.53" y1="176.4769" y2="168.4769"/><line style="stroke:#181818;stroke-width:1;" x1="1001.53" x2="1001.53" y1="176.4769" y2="168.4769"/><ellipse cx="1001.53" cy="182.4769" fill="none" rx="4" ry="4" style="stroke:#181818;stroke-width:1;"/><line style="stroke:#181818;stroke-width:1;" x1="1005.53" x2="997.53" y1="248.0869" y2="248.0869"/><line style="stroke:#181818;stroke-width:1;" x1="1005.53" x2="997.53" y1="245.0869" y2="245.0869"/><line style="stroke:#181818;stroke-width:1;" x1="1001.53" x2="1001.53" y1="244.0869" y2="252.0869"/></g><!--link required_part to service--><g class="link" data-entity-1="required_part" data-entity-2="service" data-source-line="117" data-uid="lnk24" id="link_required_part_service"><path codeLine="117" d="M905.61,160.9069 C882.73,160.9069 881.71,160.9069 881.71,160.9069 C881.71,160.9069 881.71,201.8169 881.71,244.4169" fill="none" id="required_part-service" style="stroke:#181818;stroke-width:1;"/><line style="stroke:#181818;stroke-width:1;" x1="915.61" x2="923.61" y1="160.9069" y2="154.9069"/><line style="stroke:#181818;stroke-width:1;" x1="915.61" x2="923.61" y1="160.9069" y2="166.9069"/><line style="stroke:#181818;stroke-width:1;" x1="915.61" x2="923.61" y1="160.9069" y2="160.9069"/><ellipse cx="909.61" cy="160.9069" fill="none" rx="4" ry="4" style="stroke:#181818;stroke-width:1;"/><line style="stroke:#181818;stroke-width:1;" x1="885.71" x2="877.71" y1="248.4169" y2="248.4169"/><line style="stroke:#181818;stroke-width:1;" x1="885.71" x2="877.71" y1="245.4169" y2="245.4169"/><line style="stroke:#181818;stroke-width:1;" x1="881.71" x2="881.71" y1="244.4169" y2="252.4169"/></g><!--link service_appointment to service--><g class="link" data-entity-1="service_appointment" data-entity-2="service" data-source-line="118" data-uid="lnk25" id="link_service_appointment_service"><path codeLine="118" d="M813,169.9669 C813,198.1569 813,211.3469 813,244.1769" fill="none" id="service_appointment-service" style="stroke:#181818;stroke-width:1;"/><line style="stroke:#181818;stroke-width:1;" x1="813" x2="807" y1="159.9669" y2="151.9669"/><line style="stroke:#181818;stroke-width:1;" x1="813" x2="819" y1="159.9669" y2="151.9669"/><line style="stroke:#181818;stroke-width:1;" x1="813" x2="813" y1="159.9669" y2="151.9669"/><ellipse cx="813" cy="165.9669" fill="none" rx="4" ry="4" style="stroke:#181818;stroke-width:1;"/><line style="stroke:#181818;stroke-width:1;" x1="817" x2="809" y1="248.1769" y2="248.1769"/><line style="stroke:#181818;stroke-width:1;" x1="817" x2="809" y1="245.1769" y2="245.1769"/><line style="stroke:#181818;stroke-width:1;" x1="813" x2="813" y1="244.1769" y2="252.1769"/></g><!--link service_appointment to appointment--><g class="link" data-entity-1="service_appointment" data-entity-2="appointment" data-source-line="119" data-uid="lnk26" id="link_service_appointment_appointment"><path codeLine="119" d="M748.05,170.1769 C748.05,209.9869 748.05,248.9069 748.05,248.9069 C748.05,248.9069 706.41,248.9069 650.46,248.9069" fill="none" id="service_appointment-appointment" style="stroke:#181818;stroke-width:1;"/><line style="stroke:#181818;stroke-width:1;" x1="748.05" x2="742.05" y1="160.1769" y2="152.1769"/><line style="stroke:#181818;stroke-width:1;" x1="748.05" x2="754.05" y1="160.1769" y2="152.1769"/><line style="stroke:#181818;stroke-width:1;" x1="748.05" x2="748.05" y1="160.1769" y2="152.1769"/><ellipse cx="748.05" cy="166.1769" fill="none" rx="4" ry="4" style="stroke:#181818;stroke-width:1;"/><line style="stroke:#181818;stroke-width:1;" x1="646.46" x2="646.46" y1="252.9069" y2="244.9069"/><line style="stroke:#181818;stroke-width:1;" x1="649.46" x2="649.46" y1="252.9069" y2="244.9069"/><line style="stroke:#181818;stroke-width:1;" x1="650.46" x2="642.46" y1="248.9069" y2="248.9069"/></g><!--link staff to person--><g class="link" data-entity-1="staff" data-entity-2="person" data-source-line="120" data-uid="lnk27" id="link_staff_person"><path codeLine="120" d="M389.18,594.8069 C389.18,620.3569 389.18,625.1569 389.18,652.4869" fill="none" id="staff-person" style="stroke:#181818;stroke-width:1;"/><line style="stroke:#181818;stroke-width:1;" x1="389.18" x2="383.18" y1="584.8069" y2="576.8069"/><line style="stroke:#181818;stroke-width:1;" x1="389.18" x2="395.18" y1="584.8069" y2="576.8069"/><line style="stroke:#181818;stroke-width:1;" x1="389.18" x2="389.18" y1="584.8069" y2="576.8069"/><ellipse cx="389.18" cy="590.8069" fill="none" rx="4" ry="4" style="stroke:#181818;stroke-width:1;"/><line style="stroke:#181818;stroke-width:1;" x1="393.18" x2="385.18" y1="656.4869" y2="656.4869"/><line style="stroke:#181818;stroke-width:1;" x1="393.18" x2="385.18" y1="653.4869" y2="653.4869"/><line style="stroke:#181818;stroke-width:1;" x1="389.18" x2="389.18" y1="652.4869" y2="660.4869"/></g><!--SRC=[bLGzZzim3DtzAzGrG81sw9ArQuik1JeQZ4N7nEd39z711Kt-Uwd47x9ZNwzB798It-CZnOOqAhGjNvH5UyGGYoQvAWgLmIA-a6iXW5K_o7qp4EDlqjoeBry_Px7lvF3NfKNrCt3Z2oOsg2oGApvnWnPLwRp3ia0deOk2jlNas8gf_XGxHVgWnCOJXcA_5qTagEioT-_K6HiIHWjlrKNs5iF2dI6K6XWFAlqoMRblRSTmbDfsodd6U52CRrpS1dQLTmmLb-Hglqwl5PMyMq9g7J1AjiY1t2bnasoPAKKb8hsjsaOaoS8eUfdHdjZq1QupELDxK4Vl3OARxcXVfInOMZe5O1AkPw4ittXFqniZcAHI-8PLnwXBu4cimPqo97j27x5gH7s4wcMTNzw73pKkqNMdoIFTiEdsqANT2BZTrv4RkREd2l-NMdzj0I01zWoc1EixbqJ2YYoOD0zmkQUnADElivwsa38_zKSUpSRWfqZfmEQ3eJ5MWLhEEoOdWr3CIOYS8ifh1tUCbKuzfdOTjwOGdu3bjIzywaZom3DXPg-f2WZB2PeTq2mxudd40xvs5EJYFtIPTobYEASkpRtlrDzVsDWuVRRtjEy7y4bvtVMFp9BhxWjb2xjSRhxr8hP6KvXE6TEAt13BHrfCImG3GKIfZOTKGoDwhxTn1EZtxJg44T8kOjcQVAVjPEU_p4olqMJs1I7CTZgvR1noSMv-lxzU7rMk1NfsQw5XinIpHNvz11-Fe1Ytwctc7fTPVphBFiMMCCEMkJtVcK_sW2N_roFzD1Hhq_Bn8pc1nvJCYlmB]--></g></svg>