<?xml version="1.0" encoding="us-ascii" standalone="no"?><svg xmlns="http://www.w3.org/2000/svg" xmlns:xlink="http://www.w3.org/1999/xlink" contentStyleType="text/css" height="207px" preserveAspectRatio="none" style="width:1575px;height:207px;background:#FFFFFF;" version="1.1" viewBox="0 0 1575 207" width="1575px" zoomAndPan="magnify"><defs/><g><text fill="#000000" font-family="sans-serif" font-size="14" font-weight="bold" lengthAdjust="spacing" textLength="202" x="679.5697" y="22.9951">Doctrine Diagram Bundle</text><g id="elem_setup"><ellipse cx="524.1638" cy="64.378" fill="#FFFECC" rx="40.6638" ry="14.5812" style="stroke:#333333;stroke-width:2.0;"/><text fill="#000000" font-family="sans-serif" font-size="14" lengthAdjust="spacing" textLength="41" x="501.0122" y="68.0401">setup</text></g><g id="elem_composer:install"><ellipse cx="413.1107" cy="181.819" fill="#FFFECC" rx="80.6107" ry="18.5221" style="stroke:#333333;stroke-width:2.0;"/><text fill="#000000" font-family="sans-serif" font-size="14" lengthAdjust="spacing" textLength="120" x="351.6726" y="185.1316">composer:install</text></g><g id="elem_mkdocs:build"><ellipse cx="600.1781" cy="181.9325" fill="#FFFECC" rx="71.1781" ry="16.6356" style="stroke:#333333;stroke-width:2.0;"/><text fill="#000000" font-family="sans-serif" font-size="14" lengthAdjust="spacing" textLength="96" x="549.1781" y="185.6801">mkdocs:build</text></g><g id="elem_qa"><ellipse cx="1058.0061" cy="64.3205" fill="#FFFECC" rx="23.5061" ry="14.5236" style="stroke:#333333;stroke-width:2.0;"/><text fill="#000000" font-family="sans-serif" font-size="14" lengthAdjust="spacing" textLength="17" x="1049.5061" y="67.1672">qa</text></g><g id="elem_composer:validate"><ellipse cx="793.0998" cy="182.0168" fill="#FFFECC" rx="86.5998" ry="19.72" style="stroke:#333333;stroke-width:2.0;"/><text fill="#000000" font-family="sans-serif" font-size="14" lengthAdjust="spacing" textLength="134" x="726.0998" y="184.8635">composer:validate</text></g><g id="elem_cs:check"><ellipse cx="972.0799" cy="181.548" fill="#FFFECC" rx="57.0799" ry="14.7511" style="stroke:#333333;stroke-width:2.0;"/><text fill="#000000" font-family="sans-serif" font-size="14" lengthAdjust="spacing" textLength="63" x="937.5799" y="185.2955">cs:check</text></g><g id="elem_phpstan:analyse"><ellipse cx="1143.7839" cy="181.6536" fill="#FFFECC" rx="79.7839" ry="18.3568" style="stroke:#333333;stroke-width:2.0;"/><text fill="#000000" font-family="sans-serif" font-size="14" lengthAdjust="spacing" textLength="118" x="1083.0356" y="185.0582">phpstan:analyse</text></g><g id="elem_composer:audit"><ellipse cx="1336.7532" cy="181.7475" fill="#FFFECC" rx="77.7532" ry="17.9506" style="stroke:#333333;stroke-width:2.0;"/><text fill="#000000" font-family="sans-serif" font-size="14" lengthAdjust="spacing" textLength="113" x="1277.6994" y="185.3777">composer:audit</text></g><g id="elem_help"><ellipse cx="1510.1191" cy="64.3229" fill="#FFFECC" rx="34.1191" ry="14.526" style="stroke:#333333;stroke-width:2.0;"/><text fill="#000000" font-family="sans-serif" font-size="14" lengthAdjust="spacing" textLength="32" x="1493.6725" y="67.335">help</text></g><g id="elem_visualizer"><ellipse cx="1509.8197" cy="181.564" fill="#FFFECC" rx="59.3197" ry="14.7671" style="stroke:#333333;stroke-width:2.0;"/><text fill="#000000" font-family="sans-serif" font-size="14" lengthAdjust="spacing" textLength="66" x="1473.8197" y="185.3116">visualizer</text></g><g id="elem_composer:normalize"><ellipse cx="98.7771" cy="64.2523" fill="#FFFECC" rx="92.7771" ry="20.9554" style="stroke:#333333;stroke-width:2.0;"/><text fill="#000000" font-family="sans-serif" font-size="14" lengthAdjust="spacing" textLength="148" x="24.7771" y="67.099">composer:normalize</text></g><g id="elem_mkdocs:serve"><ellipse cx="300.1868" cy="64.2342" fill="#FFFECC" rx="72.6868" ry="16.9374" style="stroke:#333333;stroke-width:2.0;"/><text fill="#000000" font-family="sans-serif" font-size="14" lengthAdjust="spacing" textLength="100" x="247.1868" y="67.9818">mkdocs:serve</text></g><g id="elem_mkdocs:gh-deploy"><ellipse cx="99.0998" cy="182.0168" fill="#FFFECC" rx="86.5998" ry="19.72" style="stroke:#333333;stroke-width:2.0;"/><text fill="#000000" font-family="sans-serif" font-size="14" lengthAdjust="spacing" textLength="134" x="32.0998" y="184.8635">mkdocs:gh-deploy</text></g><g id="elem_cs:fix"><ellipse cx="258.9534" cy="181.8525" fill="#FFFECC" rx="38.4534" ry="14.5556" style="stroke:#333333;stroke-width:2.0;"/><text fill="#000000" font-family="sans-serif" font-size="14" lengthAdjust="spacing" textLength="38" x="238.0903" y="185.3064">cs:fix</text></g><!--link setup to composer:install--><g id="link_setup_composer:install"><path d="M511.267,78.5459 C491.108,99.5219 456.0065,136.0464 433.6965,159.2612 " fill="none" id="setup-to-composer:install" style="stroke:#1A85FF;stroke-width:2.0;"/><polygon fill="#1A85FF" points="429.539,163.5873,438.6593,159.8698,433.0036,159.9822,432.8912,154.3264,429.539,163.5873" style="stroke:#1A85FF;stroke-width:2.0;"/><text fill="#000000" font-family="sans-serif" font-size="13" lengthAdjust="spacing" textLength="61" x="477" y="128.3638">depend:1</text></g><!--link setup to mkdocs:build--><g id="link_setup_mkdocs:build"><path d="M532.718,78.5459 C546.832,99.9959 571.324,137.2167 586.395,160.1214 " fill="none" id="setup-to-mkdocs:build" style="stroke:#1A85FF;stroke-width:2.0;"/><polygon fill="#1A85FF" points="589.693,165.1337,588.0875,155.4166,586.9446,160.9568,581.4044,159.8139,589.693,165.1337" style="stroke:#1A85FF;stroke-width:2.0;"/><text fill="#000000" font-family="sans-serif" font-size="13" lengthAdjust="spacing" textLength="61" x="568" y="128.3638">depend:2</text></g><!--link qa to composer:validate--><g id="link_qa_composer:validate"><path d="M1038.98,73.1239 C1015.44,82.8509 974.148,100.0309 939,115.2969 C901.67,131.5105 864.715,148.1363 835.257,161.5155 " fill="none" id="qa-to-composer:validate" style="stroke:#1A85FF;stroke-width:2.0;"/><polygon fill="#1A85FF" points="829.794,163.9967,839.6425,163.9169,834.3465,161.929,836.3343,156.633,829.794,163.9967" style="stroke:#1A85FF;stroke-width:2.0;"/><text fill="#000000" font-family="sans-serif" font-size="13" lengthAdjust="spacing" textLength="61" x="940" y="128.3638">depend:1</text></g><!--link qa to cs:check--><g id="link_qa_cs:check"><path d="M1048.8,77.6579 C1032.68,99.3059 1003.0243,139.1306 986.0533,161.9229 " fill="none" id="qa-to-cs:check" style="stroke:#1A85FF;stroke-width:2.0;"/><polygon fill="#1A85FF" points="982.47,166.7354,991.0533,161.9056,985.4561,162.725,984.6367,157.1278,982.47,166.7354" style="stroke:#1A85FF;stroke-width:2.0;"/><text fill="#000000" font-family="sans-serif" font-size="13" lengthAdjust="spacing" textLength="61" x="1022" y="128.3638">depend:2</text></g><!--link qa to phpstan:analyse--><g id="link_qa_phpstan:analyse"><path d="M1067.2,77.6579 C1082.54,98.2589 1109.7958,134.8654 1127.3758,158.4667 " fill="none" id="qa-to-phpstan:analyse" style="stroke:#1A85FF;stroke-width:2.0;"/><polygon fill="#1A85FF" points="1130.96,163.2785,1128.7916,153.6713,1127.9732,159.2686,1122.3758,158.4502,1130.96,163.2785" style="stroke:#1A85FF;stroke-width:2.0;"/><text fill="#000000" font-family="sans-serif" font-size="13" lengthAdjust="spacing" textLength="61" x="1108" y="128.3638">depend:3</text></g><!--link qa to composer:audit--><g id="link_qa_composer:audit"><path d="M1076.74,73.0549 C1122.43,91.9709 1234.6962,138.4465 1294.8862,163.3625 " fill="none" id="qa-to-composer:audit" style="stroke:#1A85FF;stroke-width:2.0;"/><polygon fill="#1A85FF" points="1300.43,165.6574,1293.6442,158.5192,1295.8102,163.745,1290.5844,165.9109,1300.43,165.6574" style="stroke:#1A85FF;stroke-width:2.0;"/><text fill="#000000" font-family="sans-serif" font-size="13" lengthAdjust="spacing" textLength="61" x="1216" y="128.3638">depend:4</text></g><!--link help to visualizer--><g id="link_help_visualizer"><path d="M1510,78.9999 C1510,101.1089 1510,138.4254 1510,160.7516 " fill="none" id="help-to-visualizer" style="stroke:#D41159;stroke-width:2.0;"/><polygon fill="#D41159" points="1510,166.7516,1514,157.7516,1510,161.7516,1506,157.7516,1510,166.7516" style="stroke:#D41159;stroke-width:2.0;"/><text fill="#000000" font-family="sans-serif" font-size="13" lengthAdjust="spacing" textLength="34" x="1511" y="128.3638">call:1</text></g><!--SRC=[XL3BRiCW4Bpp5KYvE8SSd8VKSgYKEFKFj3rLFH3OsCYOfO2JfbzVOaUDy-R4xixCpavGGGDPeWXE6Q1BnGl7QxfeZ8nzC9A65a42MXgGhZ04hAbK3aHGQ0ZnbJAMxqbl9PUuLQQWQwuzz2Ppvt2RemaPQdHqeRcepiVlfHAL0U_fk3Vwy91n3uj8A1n6Lvt28C_proox0aGdmHr0a_RT0jrTU6wMaCH3QEoGZZu7wVnfbkTVenUQ2AmjUd1C6H-uraFAg0GRWsFf3KfTIHIUhHgbPGy-9iatloc_uLf97k1K_mh1Cr62g1u9sz96luPnm_NEzsKdTttmHghGGqz9KeBkRbnEqtJstE8toZVHyI-uFLR4O8vnjFhamW6vp9ASxoLN0kdr3BgwtJeyk29z8-Gq-VyoCZTmB8jo56_JkDihUxPMFzsdY_KF]--></g></svg>