<?xml version="1.0" encoding="us-ascii" standalone="no"?><svg xmlns="http://www.w3.org/2000/svg" xmlns:xlink="http://www.w3.org/1999/xlink" contentStyleType="text/css" height="202px" preserveAspectRatio="none" style="width:1581px;height:202px;background:#FFFFFF;" version="1.1" viewBox="0 0 1581 202" width="1581px" zoomAndPan="magnify"><defs/><g><text fill="#000000" font-family="sans-serif" font-size="14" font-weight="bold" lengthAdjust="spacing" textLength="202" x="682.8197" y="22.9951">Doctrine Diagram Bundle</text><g id="elem_setup"><ellipse cx="454.6638" cy="60.378" fill="#FFFECC" rx="40.6638" ry="14.5812" style="stroke:#333333;stroke-width:2.0;"/><text fill="#000000" font-family="sans-serif" font-size="14" lengthAdjust="spacing" textLength="41" x="431.5122" y="64.0401">setup</text></g><g id="elem_composer:install"><ellipse cx="454.6107" cy="175.319" fill="#FFFECC" rx="80.6107" ry="18.5221" style="stroke:#333333;stroke-width:2.0;"/><text fill="#000000" font-family="sans-serif" font-size="14" lengthAdjust="spacing" textLength="120" x="393.1726" y="178.6316">composer:install</text></g><g id="elem_qa"><ellipse cx="1038.5061" cy="60.3205" fill="#FFFECC" rx="23.5061" ry="14.5236" style="stroke:#333333;stroke-width:2.0;"/><text fill="#000000" font-family="sans-serif" font-size="14" lengthAdjust="spacing" textLength="17" x="1030.0061" y="63.1672">qa</text></g><g id="elem_composer:validate"><ellipse cx="656.5998" cy="175.5168" fill="#FFFECC" rx="86.5998" ry="19.72" style="stroke:#333333;stroke-width:2.0;"/><text fill="#000000" font-family="sans-serif" font-size="14" lengthAdjust="spacing" textLength="134" x="589.5998" y="178.3635">composer:validate</text></g><g id="elem_composer:normalize"><ellipse cx="871.2771" cy="175.2523" fill="#FFFECC" rx="92.7771" ry="20.9554" style="stroke:#333333;stroke-width:2.0;"/><text fill="#000000" font-family="sans-serif" font-size="14" lengthAdjust="spacing" textLength="148" x="797.2771" y="178.099">composer:normalize</text></g><g id="elem_cs:fix"><ellipse cx="1038.4534" cy="175.3525" fill="#FFFECC" rx="38.4534" ry="14.5556" style="stroke:#333333;stroke-width:2.0;"/><text fill="#000000" font-family="sans-serif" font-size="14" lengthAdjust="spacing" textLength="38" x="1017.5903" y="178.8064">cs:fix</text></g><g id="elem_cs:check"><ellipse cx="1169.5799" cy="175.048" fill="#FFFECC" rx="57.0799" ry="14.7511" style="stroke:#333333;stroke-width:2.0;"/><text fill="#000000" font-family="sans-serif" font-size="14" lengthAdjust="spacing" textLength="63" x="1135.0799" y="178.7955">cs:check</text></g><g id="elem_phpstan:analyse"><ellipse cx="1341.2839" cy="175.1536" fill="#FFFECC" rx="79.7839" ry="18.3568" style="stroke:#333333;stroke-width:2.0;"/><text fill="#000000" font-family="sans-serif" font-size="14" lengthAdjust="spacing" textLength="118" x="1280.5356" y="178.5582">phpstan:analyse</text></g><g id="elem_help"><ellipse cx="1516.6191" cy="60.3229" fill="#FFFECC" rx="34.1191" ry="14.526" style="stroke:#333333;stroke-width:2.0;"/><text fill="#000000" font-family="sans-serif" font-size="14" lengthAdjust="spacing" textLength="32" x="1500.1725" y="63.335">help</text></g><g id="elem_visualizer"><ellipse cx="1516.3197" cy="175.064" fill="#FFFECC" rx="59.3197" ry="14.7671" style="stroke:#333333;stroke-width:2.0;"/><text fill="#000000" font-family="sans-serif" font-size="14" lengthAdjust="spacing" textLength="66" x="1480.3197" y="178.8116">visualizer</text></g><g id="elem_mkdocs:build"><ellipse cx="92.6781" cy="60.4325" fill="#FFFECC" rx="71.1781" ry="16.6356" style="stroke:#333333;stroke-width:2.0;"/><text fill="#000000" font-family="sans-serif" font-size="14" lengthAdjust="spacing" textLength="96" x="41.6781" y="64.1801">mkdocs:build</text></g><g id="elem_mkdocs:serve"><ellipse cx="271.6868" cy="60.2342" fill="#FFFECC" rx="72.6868" ry="16.9374" style="stroke:#333333;stroke-width:2.0;"/><text fill="#000000" font-family="sans-serif" font-size="14" lengthAdjust="spacing" textLength="100" x="218.6868" y="63.9818">mkdocs:serve</text></g><g id="elem_mkdocs:gh-deploy"><ellipse cx="92.5998" cy="175.5168" fill="#FFFECC" rx="86.5998" ry="19.72" style="stroke:#333333;stroke-width:2.0;"/><text fill="#000000" font-family="sans-serif" font-size="14" lengthAdjust="spacing" textLength="134" x="25.5998" y="178.3635">mkdocs:gh-deploy</text></g><g id="elem_psalm:run"><ellipse cx="276.4096" cy="175.1788" fill="#FFFECC" rx="62.4096" ry="14.8819" style="stroke:#333333;stroke-width:2.0;"/><text fill="#000000" font-family="sans-serif" font-size="14" lengthAdjust="spacing" textLength="71" x="237.9096" y="178.9264">psalm:run</text></g><!--link setup to composer:install--><g id="link_setup_composer:install"><path d="M454.5,75.1529 C454.5,95.6619 454.5,128.0936 454.5,150.6096 " fill="none" id="setup-to-composer:install" style="stroke:#1A85FF;stroke-width:2.0;"/><polygon fill="#1A85FF" points="454.5,156.6096,458.5,147.6096,454.5,151.6096,450.5,147.6096,454.5,156.6096" style="stroke:#1A85FF;stroke-width:2.0;"/><text fill="#000000" font-family="sans-serif" font-size="13" lengthAdjust="spacing" textLength="61" x="455.5" y="120.3638">depend:1</text></g><!--link qa to composer:validate--><g id="link_qa_composer:validate"><path d="M1017.35,66.9929 C985.905,75.5059 925.002,92.1699 873.5,107.2969 C815.241,124.4082 754.2705,143.3747 710.3725,157.2094 " fill="none" id="qa-to-composer:validate" style="stroke:#1A85FF;stroke-width:2.0;"/><polygon fill="#1A85FF" points="704.65,159.0129,714.4361,160.1227,709.4188,157.51,712.0315,152.4926,704.65,159.0129" style="stroke:#1A85FF;stroke-width:2.0;"/><text fill="#000000" font-family="sans-serif" font-size="13" lengthAdjust="spacing" textLength="61" x="874.5" y="120.3638">depend:1</text></g><!--link qa to composer:normalize--><g id="link_qa_composer:normalize"><path d="M1022.89,71.1949 C1008.43,80.4079 986.39,94.5909 967.5,107.2969 C944.058,123.064 922.6707,137.9985 903.5377,151.5217 " fill="none" id="qa-to-composer:normalize" style="stroke:#1A85FF;stroke-width:2.0;"/><polygon fill="#1A85FF" points="898.638,154.9848,908.2963,153.0566,902.7211,152.0989,903.6788,146.5237,898.638,154.9848" style="stroke:#1A85FF;stroke-width:2.0;"/><text fill="#000000" font-family="sans-serif" font-size="13" lengthAdjust="spacing" textLength="61" x="968.5" y="120.3638">depend:2</text></g><!--link qa to cs:fix--><g id="link_qa_cs:fix"><path d="M1038.5,75.1529 C1038.5,96.9585 1038.5,133.0244 1038.5,154.6805 " fill="none" id="qa-to-cs:fix" style="stroke:#1A85FF;stroke-width:2.0;"/><polygon fill="#1A85FF" points="1038.5,160.6805,1042.5,151.6805,1038.5,155.6805,1034.5,151.6805,1038.5,160.6805" style="stroke:#1A85FF;stroke-width:2.0;"/><text fill="#000000" font-family="sans-serif" font-size="13" lengthAdjust="spacing" textLength="61" x="1039.5" y="120.3638">depend:3</text></g><!--link qa to cs:check--><g id="link_qa_cs:check"><path d="M1055.44,70.5499 C1070.4,79.1109 1092.42,92.6889 1109.5,107.2969 C1128.72,123.7406 1143.9146,141.4997 1155.2246,155.7785 " fill="none" id="qa-to-cs:check" style="stroke:#1A85FF;stroke-width:2.0;"/><polygon fill="#1A85FF" points="1158.95,160.4818,1156.4974,150.9432,1155.8455,156.5623,1150.2263,155.9104,1158.95,160.4818" style="stroke:#1A85FF;stroke-width:2.0;"/><text fill="#000000" font-family="sans-serif" font-size="13" lengthAdjust="spacing" textLength="61" x="1128.5" y="120.3638">depend:4</text></g><!--link qa to phpstan:analyse--><g id="link_qa_phpstan:analyse"><path d="M1060.07,66.3439 C1091.14,73.8709 1150.06,89.1169 1198.5,107.2969 C1238.16,122.1811 1276.6852,140.7768 1305.2452,155.3446 " fill="none" id="qa-to-phpstan:analyse" style="stroke:#1A85FF;stroke-width:2.0;"/><polygon fill="#1A85FF" points="1310.59,158.0709,1304.3903,150.4182,1306.136,155.799,1300.7552,157.5447,1310.59,158.0709" style="stroke:#1A85FF;stroke-width:2.0;"/><text fill="#000000" font-family="sans-serif" font-size="13" lengthAdjust="spacing" textLength="61" x="1240.5" y="120.3638">depend:5</text></g><!--link help to visualizer--><g id="link_help_visualizer"><path d="M1516.5,75.1529 C1516.5,96.7228 1516.5,132.1172 1516.5,153.971 " fill="none" id="help-to-visualizer" style="stroke:#D41159;stroke-width:2.0;"/><polygon fill="#D41159" points="1516.5,159.971,1520.5,150.971,1516.5,154.971,1512.5,150.971,1516.5,159.971" style="stroke:#D41159;stroke-width:2.0;"/><text fill="#000000" font-family="sans-serif" font-size="13" lengthAdjust="spacing" textLength="34" x="1517.5" y="120.3638">call:1</text></g><!--SRC=[ZP3DRi8m48Jl-nIMk8G3X_0ZjJbKWj2yGDjJrOEnbyIAuqrj1qgVlaw2H0G1rJTxl_7CZbTU8sn9UAiCigtYkUKLspH6XdSqalcE04yryyHsv3rLJ2gBmYio0AvKfkQjwAtWaexAv6pFjSF1P6qj7JCoFYLDbcqq5-Nr-BrGeZJe79iFHXyEK-vm4mIvfP2g_s6IPTbhcew0P2NQCxJepZteeU5rM838eM_gAPjzJkBrqohBlcOlB19KrUJG9ieupxMUieH9h4DnIGpHDx_B7xXMadlyjy2GhOBcTwYOZofSibS_0sfnXn85YdB0BSUukgZ3OYRXXkkJ6vgl82fGzuribt6yUku41-MQBgTjMH4wQHVho-iCuEPFkAqHHfg2iJBE8M3e2r5LIWeRxXgbvUKQb0UyNFDY5bRHT6eZEQwhn3QcTUaBX4j7Vm00]--></g></svg>